# Tiled2Unity generated file. Do not modify by hand.
# Wavefront file for 'Temple_mesh_0008.obj'

# Vertices (Count = 536)
v -7.36 -1.28 0
v -7.68 -1.28 0
v -7.68 -0.96 0
v -7.36 -0.96 0
v -7.68 -1.28 0
v -8 -1.28 0
v -8 -0.96 0
v -7.68 -0.96 0
v -8 -1.28 0
v -8.32 -1.28 0
v -8.32 -0.96 0
v -8 -0.96 0
v -13.44 -1.28 0
v -13.76 -1.28 0
v -13.76 -0.96 0
v -13.44 -0.96 0
v -13.76 -1.28 0
v -14.08 -1.28 0
v -14.08 -0.96 0
v -13.76 -0.96 0
v -14.08 -1.28 0
v -14.4 -1.28 0
v -14.4 -0.96 0
v -14.08 -0.96 0
v -7.36 -1.6 0
v -7.68 -1.6 0
v -7.68 -1.28 0
v -7.36 -1.28 0
v -7.68 -1.6 0
v -8 -1.6 0
v -8 -1.28 0
v -7.68 -1.28 0
v -8 -1.6 0
v -8.32 -1.6 0
v -8.32 -1.28 0
v -8 -1.28 0
v -13.44 -1.6 0
v -13.76 -1.6 0
v -13.76 -1.28 0
v -13.44 -1.28 0
v -13.76 -1.6 0
v -14.08 -1.6 0
v -14.08 -1.28 0
v -13.76 -1.28 0
v -14.08 -1.6 0
v -14.4 -1.6 0
v -14.4 -1.28 0
v -14.08 -1.28 0
v -7.36 -1.92 0
v -7.68 -1.92 0
v -7.68 -1.6 0
v -7.36 -1.6 0
v -7.68 -1.92 0
v -8 -1.92 0
v -8 -1.6 0
v -7.68 -1.6 0
v -8 -1.92 0
v -8.32 -1.92 0
v -8.32 -1.6 0
v -8 -1.6 0
v -13.44 -1.92 0
v -13.76 -1.92 0
v -13.76 -1.6 0
v -13.44 -1.6 0
v -13.76 -1.92 0
v -14.08 -1.92 0
v -14.08 -1.6 0
v -13.76 -1.6 0
v -14.08 -1.92 0
v -14.4 -1.92 0
v -14.4 -1.6 0
v -14.08 -1.6 0
v -3.52 -2.24 0
v -3.84 -2.24 0
v -3.84 -1.92 0
v -3.52 -1.92 0
v -3.84 -2.24 0
v -4.16 -2.24 0
v -4.16 -1.92 0
v -3.84 -1.92 0
v -4.16 -2.24 0
v -4.48 -2.24 0
v -4.48 -1.92 0
v -4.16 -1.92 0
v -11.84 -2.24 0
v -12.16 -2.24 0
v -12.16 -1.92 0
v -11.84 -1.92 0
v -12.16 -2.24 0
v -12.48 -2.24 0
v -12.48 -1.92 0
v -12.16 -1.92 0
v -12.48 -2.24 0
v -12.8 -2.24 0
v -12.8 -1.92 0
v -12.48 -1.92 0
v -3.52 -2.56 0
v -3.84 -2.56 0
v -3.84 -2.24 0
v -3.52 -2.24 0
v -3.84 -2.56 0
v -4.16 -2.56 0
v -4.16 -2.24 0
v -3.84 -2.24 0
v -4.16 -2.56 0
v -4.48 -2.56 0
v -4.48 -2.24 0
v -4.16 -2.24 0
v -11.84 -2.56 0
v -12.16 -2.56 0
v -12.16 -2.24 0
v -11.84 -2.24 0
v -12.16 -2.56 0
v -12.48 -2.56 0
v -12.48 -2.24 0
v -12.16 -2.24 0
v -12.48 -2.56 0
v -12.8 -2.56 0
v -12.8 -2.24 0
v -12.48 -2.24 0
v -3.52 -2.88 0
v -3.84 -2.88 0
v -3.84 -2.56 0
v -3.52 -2.56 0
v -3.84 -2.88 0
v -4.16 -2.88 0
v -4.16 -2.56 0
v -3.84 -2.56 0
v -4.16 -2.88 0
v -4.48 -2.88 0
v -4.48 -2.56 0
v -4.16 -2.56 0
v -11.84 -2.88 0
v -12.16 -2.88 0
v -12.16 -2.56 0
v -11.84 -2.56 0
v -12.16 -2.88 0
v -12.48 -2.88 0
v -12.48 -2.56 0
v -12.16 -2.56 0
v -12.48 -2.88 0
v -12.8 -2.88 0
v -12.8 -2.56 0
v -12.48 -2.56 0
v -12.48 -3.2 0
v -12.8 -3.2 0
v -12.8 -2.88 0
v -12.48 -2.88 0
v -12.8 -3.2 0
v -13.12 -3.2 0
v -13.12 -2.88 0
v -12.8 -2.88 0
v -13.12 -3.2 0
v -13.44 -3.2 0
v -13.44 -2.88 0
v -13.12 -2.88 0
v -12.48 -3.52 0
v -12.8 -3.52 0
v -12.8 -3.2 0
v -12.48 -3.2 0
v -12.8 -3.52 0
v -13.12 -3.52 0
v -13.12 -3.2 0
v -12.8 -3.2 0
v -13.12 -3.52 0
v -13.44 -3.52 0
v -13.44 -3.2 0
v -13.12 -3.2 0
v -2.88 -3.84 0
v -3.2 -3.84 0
v -3.2 -3.52 0
v -2.88 -3.52 0
v -3.2 -3.84 0
v -3.52 -3.84 0
v -3.52 -3.52 0
v -3.2 -3.52 0
v -3.52 -3.84 0
v -3.84 -3.84 0
v -3.84 -3.52 0
v -3.52 -3.52 0
v -12.48 -3.84 0
v -12.8 -3.84 0
v -12.8 -3.52 0
v -12.48 -3.52 0
v -12.8 -3.84 0
v -13.12 -3.84 0
v -13.12 -3.52 0
v -12.8 -3.52 0
v -13.12 -3.84 0
v -13.44 -3.84 0
v -13.44 -3.52 0
v -13.12 -3.52 0
v -2.88 -4.16 0
v -3.2 -4.16 0
v -3.2 -3.84 0
v -2.88 -3.84 0
v -3.2 -4.16 0
v -3.52 -4.16 0
v -3.52 -3.84 0
v -3.2 -3.84 0
v -3.52 -4.16 0
v -3.84 -4.16 0
v -3.84 -3.84 0
v -3.52 -3.84 0
v -2.88 -4.48 0
v -3.2 -4.48 0
v -3.2 -4.16 0
v -2.88 -4.16 0
v -3.2 -4.48 0
v -3.52 -4.48 0
v -3.52 -4.16 0
v -3.2 -4.16 0
v -3.52 -4.48 0
v -3.84 -4.48 0
v -3.84 -4.16 0
v -3.52 -4.16 0
v -13.12 -4.48 0
v -13.44 -4.48 0
v -13.44 -4.16 0
v -13.12 -4.16 0
v -13.44 -4.48 0
v -13.76 -4.48 0
v -13.76 -4.16 0
v -13.44 -4.16 0
v -13.76 -4.48 0
v -14.08 -4.48 0
v -14.08 -4.16 0
v -13.76 -4.16 0
v -2.56 -4.8 0
v -2.88 -4.8 0
v -2.88 -4.48 0
v -2.56 -4.48 0
v -2.88 -4.8 0
v -3.2 -4.8 0
v -3.2 -4.48 0
v -2.88 -4.48 0
v -3.2 -4.8 0
v -3.52 -4.8 0
v -3.52 -4.48 0
v -3.2 -4.48 0
v -13.12 -4.8 0
v -13.44 -4.8 0
v -13.44 -4.48 0
v -13.12 -4.48 0
v -13.44 -4.8 0
v -13.76 -4.8 0
v -13.76 -4.48 0
v -13.44 -4.48 0
v -13.76 -4.8 0
v -14.08 -4.8 0
v -14.08 -4.48 0
v -13.76 -4.48 0
v -2.56 -5.12 0
v -2.88 -5.12 0
v -2.88 -4.8 0
v -2.56 -4.8 0
v -2.88 -5.12 0
v -3.2 -5.12 0
v -3.2 -4.8 0
v -2.88 -4.8 0
v -3.2 -5.12 0
v -3.52 -5.12 0
v -3.52 -4.8 0
v -3.2 -4.8 0
v -13.12 -5.12 0
v -13.44 -5.12 0
v -13.44 -4.8 0
v -13.12 -4.8 0
v -13.44 -5.12 0
v -13.76 -5.12 0
v -13.76 -4.8 0
v -13.44 -4.8 0
v -13.76 -5.12 0
v -14.08 -5.12 0
v -14.08 -4.8 0
v -13.76 -4.8 0
v -2.56 -5.44 0
v -2.88 -5.44 0
v -2.88 -5.12 0
v -2.56 -5.12 0
v -2.88 -5.44 0
v -3.2 -5.44 0
v -3.2 -5.12 0
v -2.88 -5.12 0
v -3.2 -5.44 0
v -3.52 -5.44 0
v -3.52 -5.12 0
v -3.2 -5.12 0
v -12.48 -5.76 0
v -12.8 -5.76 0
v -12.8 -5.44 0
v -12.48 -5.44 0
v -12.8 -5.76 0
v -13.12 -5.76 0
v -13.12 -5.44 0
v -12.8 -5.44 0
v -13.12 -5.76 0
v -13.44 -5.76 0
v -13.44 -5.44 0
v -13.12 -5.44 0
v -12.48 -6.08 0
v -12.8 -6.08 0
v -12.8 -5.76 0
v -12.48 -5.76 0
v -12.8 -6.08 0
v -13.12 -6.08 0
v -13.12 -5.76 0
v -12.8 -5.76 0
v -13.12 -6.08 0
v -13.44 -6.08 0
v -13.44 -5.76 0
v -13.12 -5.76 0
v -12.48 -6.4 0
v -12.8 -6.4 0
v -12.8 -6.08 0
v -12.48 -6.08 0
v -12.8 -6.4 0
v -13.12 -6.4 0
v -13.12 -6.08 0
v -12.8 -6.08 0
v -3.84 -7.36 0
v -4.16 -7.36 0
v -4.16 -7.04 0
v -3.84 -7.04 0
v -4.16 -7.36 0
v -4.48 -7.36 0
v -4.48 -7.04 0
v -4.16 -7.04 0
v -4.48 -7.36 0
v -4.8 -7.36 0
v -4.8 -7.04 0
v -4.48 -7.04 0
v -3.84 -7.68 0
v -4.16 -7.68 0
v -4.16 -7.36 0
v -3.84 -7.36 0
v -4.16 -7.68 0
v -4.48 -7.68 0
v -4.48 -7.36 0
v -4.16 -7.36 0
v -4.48 -7.68 0
v -4.8 -7.68 0
v -4.8 -7.36 0
v -4.48 -7.36 0
v -3.84 -8 0
v -4.16 -8 0
v -4.16 -7.68 0
v -3.84 -7.68 0
v -4.16 -8 0
v -4.48 -8 0
v -4.48 -7.68 0
v -4.16 -7.68 0
v -4.48 -8 0
v -4.8 -8 0
v -4.8 -7.68 0
v -4.48 -7.68 0
v -1.92 -9.599999 0
v -2.24 -9.599999 0
v -2.24 -9.28 0
v -1.92 -9.28 0
v -2.24 -9.599999 0
v -2.56 -9.599999 0
v -2.56 -9.28 0
v -2.24 -9.28 0
v -2.56 -9.599999 0
v -2.88 -9.599999 0
v -2.88 -9.28 0
v -2.56 -9.28 0
v -1.92 -9.92 0
v -2.24 -9.92 0
v -2.24 -9.599999 0
v -1.92 -9.599999 0
v -2.24 -9.92 0
v -2.56 -9.92 0
v -2.56 -9.599999 0
v -2.24 -9.599999 0
v -2.56 -9.92 0
v -2.88 -9.92 0
v -2.88 -9.599999 0
v -2.56 -9.599999 0
v -13.12 -9.92 0
v -13.44 -9.92 0
v -13.44 -9.599999 0
v -13.12 -9.599999 0
v -13.44 -9.92 0
v -13.76 -9.92 0
v -13.76 -9.599999 0
v -13.44 -9.599999 0
v -13.76 -9.92 0
v -14.08 -9.92 0
v -14.08 -9.599999 0
v -13.76 -9.599999 0
v -1.92 -10.24 0
v -2.24 -10.24 0
v -2.24 -9.92 0
v -1.92 -9.92 0
v -2.24 -10.24 0
v -2.56 -10.24 0
v -2.56 -9.92 0
v -2.24 -9.92 0
v -2.56 -10.24 0
v -2.88 -10.24 0
v -2.88 -9.92 0
v -2.56 -9.92 0
v -13.12 -10.24 0
v -13.44 -10.24 0
v -13.44 -9.92 0
v -13.12 -9.92 0
v -13.44 -10.24 0
v -13.76 -10.24 0
v -13.76 -9.92 0
v -13.44 -9.92 0
v -13.76 -10.24 0
v -14.08 -10.24 0
v -14.08 -9.92 0
v -13.76 -9.92 0
v -3.84 -10.56 0
v -4.16 -10.56 0
v -4.16 -10.24 0
v -3.84 -10.24 0
v -4.16 -10.56 0
v -4.48 -10.56 0
v -4.48 -10.24 0
v -4.16 -10.24 0
v -4.48 -10.56 0
v -4.8 -10.56 0
v -4.8 -10.24 0
v -4.48 -10.24 0
v -11.52 -10.56 0
v -11.84 -10.56 0
v -11.84 -10.24 0
v -11.52 -10.24 0
v -11.84 -10.56 0
v -12.16 -10.56 0
v -12.16 -10.24 0
v -11.84 -10.24 0
v -12.16 -10.56 0
v -12.48 -10.56 0
v -12.48 -10.24 0
v -12.16 -10.24 0
v -13.12 -10.56 0
v -13.44 -10.56 0
v -13.44 -10.24 0
v -13.12 -10.24 0
v -13.44 -10.56 0
v -13.76 -10.56 0
v -13.76 -10.24 0
v -13.44 -10.24 0
v -13.76 -10.56 0
v -14.08 -10.56 0
v -14.08 -10.24 0
v -13.76 -10.24 0
v -3.84 -10.88 0
v -4.16 -10.88 0
v -4.16 -10.56 0
v -3.84 -10.56 0
v -4.16 -10.88 0
v -4.48 -10.88 0
v -4.48 -10.56 0
v -4.16 -10.56 0
v -4.48 -10.88 0
v -4.8 -10.88 0
v -4.8 -10.56 0
v -4.48 -10.56 0
v -11.52 -10.88 0
v -11.84 -10.88 0
v -11.84 -10.56 0
v -11.52 -10.56 0
v -11.84 -10.88 0
v -12.16 -10.88 0
v -12.16 -10.56 0
v -11.84 -10.56 0
v -12.16 -10.88 0
v -12.48 -10.88 0
v -12.48 -10.56 0
v -12.16 -10.56 0
v -3.84 -11.2 0
v -4.16 -11.2 0
v -4.16 -10.88 0
v -3.84 -10.88 0
v -4.16 -11.2 0
v -4.48 -11.2 0
v -4.48 -10.88 0
v -4.16 -10.88 0
v -4.48 -11.2 0
v -4.8 -11.2 0
v -4.8 -10.88 0
v -4.48 -10.88 0
v -8 -11.2 0
v -8.32 -11.2 0
v -8.32 -10.88 0
v -8 -10.88 0
v -8.32 -11.2 0
v -8.639999 -11.2 0
v -8.639999 -10.88 0
v -8.32 -10.88 0
v -8.639999 -11.2 0
v -8.96 -11.2 0
v -8.96 -10.88 0
v -8.639999 -10.88 0
v -11.52 -11.2 0
v -11.84 -11.2 0
v -11.84 -10.88 0
v -11.52 -10.88 0
v -11.84 -11.2 0
v -12.16 -11.2 0
v -12.16 -10.88 0
v -11.84 -10.88 0
v -12.16 -11.2 0
v -12.48 -11.2 0
v -12.48 -10.88 0
v -12.16 -10.88 0
v -8 -11.52 0
v -8.32 -11.52 0
v -8.32 -11.2 0
v -8 -11.2 0
v -8.32 -11.52 0
v -8.639999 -11.52 0
v -8.639999 -11.2 0
v -8.32 -11.2 0
v -8.639999 -11.52 0
v -8.96 -11.52 0
v -8.96 -11.2 0
v -8.639999 -11.2 0
v -8 -11.84 0
v -8.32 -11.84 0
v -8.32 -11.52 0
v -8 -11.52 0
v -8.32 -11.84 0
v -8.639999 -11.84 0
v -8.639999 -11.52 0
v -8.32 -11.52 0
v -8.639999 -11.84 0
v -8.96 -11.84 0
v -8.96 -11.52 0
v -8.639999 -11.52 0

# Texture cooridinates (Count = 16)
vt 0.875 0.375
vt 0.90625 0.375
vt 0.90625 0.40625
vt 0.875 0.40625
vt 0.9375 0.375
vt 0.9375 0.40625
vt 0.96875 0.375
vt 0.96875 0.40625
vt 0.875 0.34375
vt 0.90625 0.34375
vt 0.9375 0.34375
vt 0.96875 0.34375
vt 0.875 0.3125
vt 0.90625 0.3125
vt 0.9375 0.3125
vt 0.96875 0.3125

# Normal
vn 0 0 -1

# Mesh description
g Temple_mesh_0008

# Faces
f 1/1/1 2/2/1 3/3/1 4/4/1
f 5/2/1 6/5/1 7/6/1 8/3/1
f 9/5/1 10/7/1 11/8/1 12/6/1
f 13/1/1 14/2/1 15/3/1 16/4/1
f 17/2/1 18/5/1 19/6/1 20/3/1
f 21/5/1 22/7/1 23/8/1 24/6/1
f 25/9/1 26/10/1 27/2/1 28/1/1
f 29/10/1 30/11/1 31/5/1 32/2/1
f 33/11/1 34/12/1 35/7/1 36/5/1
f 37/9/1 38/10/1 39/2/1 40/1/1
f 41/10/1 42/11/1 43/5/1 44/2/1
f 45/11/1 46/12/1 47/7/1 48/5/1
f 49/13/1 50/14/1 51/10/1 52/9/1
f 53/14/1 54/15/1 55/11/1 56/10/1
f 57/15/1 58/16/1 59/12/1 60/11/1
f 61/13/1 62/14/1 63/10/1 64/9/1
f 65/14/1 66/15/1 67/11/1 68/10/1
f 69/15/1 70/16/1 71/12/1 72/11/1
f 73/1/1 74/2/1 75/3/1 76/4/1
f 77/2/1 78/5/1 79/6/1 80/3/1
f 81/5/1 82/7/1 83/8/1 84/6/1
f 85/1/1 86/2/1 87/3/1 88/4/1
f 89/2/1 90/5/1 91/6/1 92/3/1
f 93/5/1 94/7/1 95/8/1 96/6/1
f 97/9/1 98/10/1 99/2/1 100/1/1
f 101/10/1 102/11/1 103/5/1 104/2/1
f 105/11/1 106/12/1 107/7/1 108/5/1
f 109/9/1 110/10/1 111/2/1 112/1/1
f 113/10/1 114/11/1 115/5/1 116/2/1
f 117/11/1 118/12/1 119/7/1 120/5/1
f 121/13/1 122/14/1 123/10/1 124/9/1
f 125/14/1 126/15/1 127/11/1 128/10/1
f 129/15/1 130/16/1 131/12/1 132/11/1
f 133/13/1 134/14/1 135/10/1 136/9/1
f 137/14/1 138/15/1 139/11/1 140/10/1
f 141/15/1 142/16/1 143/12/1 144/11/1
f 145/1/1 146/2/1 147/3/1 148/4/1
f 149/2/1 150/5/1 151/6/1 152/3/1
f 153/5/1 154/7/1 155/8/1 156/6/1
f 157/9/1 158/10/1 159/2/1 160/1/1
f 161/10/1 162/11/1 163/5/1 164/2/1
f 165/11/1 166/12/1 167/7/1 168/5/1
f 169/1/1 170/2/1 171/3/1 172/4/1
f 173/2/1 174/5/1 175/6/1 176/3/1
f 177/5/1 178/7/1 179/8/1 180/6/1
f 181/13/1 182/14/1 183/10/1 184/9/1
f 185/14/1 186/15/1 187/11/1 188/10/1
f 189/15/1 190/16/1 191/12/1 192/11/1
f 193/9/1 194/10/1 195/2/1 196/1/1
f 197/10/1 198/11/1 199/5/1 200/2/1
f 201/11/1 202/12/1 203/7/1 204/5/1
f 205/13/1 206/14/1 207/10/1 208/9/1
f 209/14/1 210/15/1 211/11/1 212/10/1
f 213/15/1 214/16/1 215/12/1 216/11/1
f 217/1/1 218/2/1 219/3/1 220/4/1
f 221/2/1 222/5/1 223/6/1 224/3/1
f 225/5/1 226/7/1 227/8/1 228/6/1
f 229/1/1 230/2/1 231/3/1 232/4/1
f 233/2/1 234/5/1 235/6/1 236/3/1
f 237/5/1 238/7/1 239/8/1 240/6/1
f 241/9/1 242/10/1 243/2/1 244/1/1
f 245/10/1 246/11/1 247/5/1 248/2/1
f 249/11/1 250/12/1 251/7/1 252/5/1
f 253/9/1 254/10/1 255/2/1 256/1/1
f 257/10/1 258/11/1 259/5/1 260/2/1
f 261/11/1 262/12/1 263/7/1 264/5/1
f 265/13/1 266/14/1 267/10/1 268/9/1
f 269/14/1 270/15/1 271/11/1 272/10/1
f 273/15/1 274/16/1 275/12/1 276/11/1
f 277/13/1 278/14/1 279/10/1 280/9/1
f 281/14/1 282/15/1 283/11/1 284/10/1
f 285/15/1 286/16/1 287/12/1 288/11/1
f 289/1/1 290/2/1 291/3/1 292/4/1
f 293/2/1 294/5/1 295/6/1 296/3/1
f 297/5/1 298/7/1 299/8/1 300/6/1
f 301/9/1 302/10/1 303/2/1 304/1/1
f 305/10/1 306/11/1 307/5/1 308/2/1
f 309/11/1 310/12/1 311/7/1 312/5/1
f 313/13/1 314/14/1 315/10/1 316/9/1
f 317/14/1 318/15/1 319/11/1 320/10/1
f 321/1/1 322/2/1 323/3/1 324/4/1
f 325/2/1 326/5/1 327/6/1 328/3/1
f 329/5/1 330/7/1 331/8/1 332/6/1
f 333/9/1 334/10/1 335/2/1 336/1/1
f 337/10/1 338/11/1 339/5/1 340/2/1
f 341/11/1 342/12/1 343/7/1 344/5/1
f 345/13/1 346/14/1 347/10/1 348/9/1
f 349/14/1 350/15/1 351/11/1 352/10/1
f 353/15/1 354/16/1 355/12/1 356/11/1
f 357/1/1 358/2/1 359/3/1 360/4/1
f 361/2/1 362/5/1 363/6/1 364/3/1
f 365/5/1 366/7/1 367/8/1 368/6/1
f 369/9/1 370/10/1 371/2/1 372/1/1
f 373/10/1 374/11/1 375/5/1 376/2/1
f 377/11/1 378/12/1 379/7/1 380/5/1
f 381/1/1 382/2/1 383/3/1 384/4/1
f 385/2/1 386/5/1 387/6/1 388/3/1
f 389/5/1 390/7/1 391/8/1 392/6/1
f 393/13/1 394/14/1 395/10/1 396/9/1
f 397/14/1 398/15/1 399/11/1 400/10/1
f 401/15/1 402/16/1 403/12/1 404/11/1
f 405/9/1 406/10/1 407/2/1 408/1/1
f 409/10/1 410/11/1 411/5/1 412/2/1
f 413/11/1 414/12/1 415/7/1 416/5/1
f 417/1/1 418/2/1 419/3/1 420/4/1
f 421/2/1 422/5/1 423/6/1 424/3/1
f 425/5/1 426/7/1 427/8/1 428/6/1
f 429/1/1 430/2/1 431/3/1 432/4/1
f 433/2/1 434/5/1 435/6/1 436/3/1
f 437/5/1 438/7/1 439/8/1 440/6/1
f 441/13/1 442/14/1 443/10/1 444/9/1
f 445/14/1 446/15/1 447/11/1 448/10/1
f 449/15/1 450/16/1 451/12/1 452/11/1
f 453/9/1 454/10/1 455/2/1 456/1/1
f 457/10/1 458/11/1 459/5/1 460/2/1
f 461/11/1 462/12/1 463/7/1 464/5/1
f 465/9/1 466/10/1 467/2/1 468/1/1
f 469/10/1 470/11/1 471/5/1 472/2/1
f 473/11/1 474/12/1 475/7/1 476/5/1
f 477/13/1 478/14/1 479/10/1 480/9/1
f 481/14/1 482/15/1 483/11/1 484/10/1
f 485/15/1 486/16/1 487/12/1 488/11/1
f 489/1/1 490/2/1 491/3/1 492/4/1
f 493/2/1 494/5/1 495/6/1 496/3/1
f 497/5/1 498/7/1 499/8/1 500/6/1
f 501/13/1 502/14/1 503/10/1 504/9/1
f 505/14/1 506/15/1 507/11/1 508/10/1
f 509/1/1 510/2/1 511/3/1 512/4/1
f 513/9/1 514/10/1 515/2/1 516/1/1
f 517/10/1 518/11/1 519/5/1 520/2/1
f 521/11/1 522/12/1 523/7/1 524/5/1
f 525/13/1 526/14/1 527/10/1 528/9/1
f 529/14/1 530/15/1 531/11/1 532/10/1
f 533/15/1 534/16/1 535/12/1 536/11/1

