# Tiled2Unity generated file. Do not modify by hand.
# Wavefront file for 'Temple_mesh_0004.obj'

# Vertices (Count = 40)
v -7.04 -1.92 0
v -7.36 -1.92 0
v -7.36 -1.6 0
v -7.04 -1.6 0
v -7.04 -2.56 0
v -7.36 -2.56 0
v -7.36 -2.24 0
v -7.04 -2.24 0
v -5.76 -3.2 0
v -6.08 -3.2 0
v -6.08 -2.88 0
v -5.76 -2.88 0
v -3.84 -8 0
v -4.16 -8 0
v -4.16 -7.68 0
v -3.84 -7.68 0
v -11.52 -8 0
v -11.84 -8 0
v -11.84 -7.68 0
v -11.52 -7.68 0
v -4.16 -8.32 0
v -4.48 -8.32 0
v -4.48 -8 0
v -4.16 -8 0
v -12.48 -8.639999 0
v -12.8 -8.639999 0
v -12.8 -8.32 0
v -12.48 -8.32 0
v -12.16 -9.28 0
v -12.48 -9.28 0
v -12.48 -8.96 0
v -12.16 -8.96 0
v -5.76 -10.24 0
v -6.08 -10.24 0
v -6.08 -9.92 0
v -5.76 -9.92 0
v -4.48 -11.2 0
v -4.8 -11.2 0
v -4.8 -10.88 0
v -4.48 -10.88 0

# Texture cooridinates (Count = 8)
vt 0.25 0.5625
vt 0.3125 0.5625
vt 0.3125 0.625
vt 0.25 0.625
vt 0.8125 0.8125
vt 0.875 0.8125
vt 0.875 0.875
vt 0.8125 0.875

# Normal
vn 0 0 -1

# Mesh description
g Temple_mesh_0004

# Faces
f 1/1/1 2/2/1 3/3/1 4/4/1
f 5/1/1 6/2/1 7/3/1 8/4/1
f 9/1/1 10/2/1 11/3/1 12/4/1
f 13/5/1 14/6/1 15/7/1 16/8/1
f 17/5/1 18/6/1 19/7/1 20/8/1
f 21/5/1 22/6/1 23/7/1 24/8/1
f 25/1/1 26/2/1 27/3/1 28/4/1
f 29/1/1 30/2/1 31/3/1 32/4/1
f 33/1/1 34/2/1 35/3/1 36/4/1
f 37/5/1 38/6/1 39/7/1 40/8/1

