# Tiled2Unity generated file. Do not modify by hand.
# Wavefront file for 'Temple_mesh_0010.obj'

# Vertices (Count = 176)
v -8.96 -2.56 0
v -9.28 -2.56 0
v -9.28 -2.24 0
v -8.96 -2.24 0
v -9.28 -2.56 0
v -9.599999 -2.56 0
v -9.599999 -2.24 0
v -9.28 -2.24 0
v -9.599999 -2.56 0
v -9.92 -2.56 0
v -9.92 -2.24 0
v -9.599999 -2.24 0
v -8.96 -2.88 0
v -9.28 -2.88 0
v -9.28 -2.56 0
v -8.96 -2.56 0
v -9.28 -2.88 0
v -9.599999 -2.88 0
v -9.599999 -2.56 0
v -9.28 -2.56 0
v -9.599999 -2.88 0
v -9.92 -2.88 0
v -9.92 -2.56 0
v -9.599999 -2.56 0
v -6.08 -3.2 0
v -6.4 -3.2 0
v -6.4 -2.88 0
v -6.08 -2.88 0
v -6.4 -3.2 0
v -6.72 -3.2 0
v -6.72 -2.88 0
v -6.4 -2.88 0
v -6.72 -3.2 0
v -7.04 -3.2 0
v -7.04 -2.88 0
v -6.72 -2.88 0
v -8.96 -3.2 0
v -9.28 -3.2 0
v -9.28 -2.88 0
v -8.96 -2.88 0
v -9.28 -3.2 0
v -9.599999 -3.2 0
v -9.599999 -2.88 0
v -9.28 -2.88 0
v -9.599999 -3.2 0
v -9.92 -3.2 0
v -9.92 -2.88 0
v -9.599999 -2.88 0
v -6.08 -3.52 0
v -6.4 -3.52 0
v -6.4 -3.2 0
v -6.08 -3.2 0
v -6.4 -3.52 0
v -6.72 -3.52 0
v -6.72 -3.2 0
v -6.4 -3.2 0
v -6.72 -3.52 0
v -7.04 -3.52 0
v -7.04 -3.2 0
v -6.72 -3.2 0
v -6.08 -3.84 0
v -6.4 -3.84 0
v -6.4 -3.52 0
v -6.08 -3.52 0
v -6.4 -3.84 0
v -6.72 -3.84 0
v -6.72 -3.52 0
v -6.4 -3.52 0
v -6.72 -3.84 0
v -7.04 -3.84 0
v -7.04 -3.52 0
v -6.72 -3.52 0
v -3.52 -5.76 0
v -3.84 -5.76 0
v -3.84 -5.44 0
v -3.52 -5.44 0
v -3.84 -5.76 0
v -4.16 -5.76 0
v -4.16 -5.44 0
v -3.84 -5.44 0
v -4.16 -5.76 0
v -4.48 -5.76 0
v -4.48 -5.44 0
v -4.16 -5.44 0
v -3.52 -6.08 0
v -3.84 -6.08 0
v -3.84 -5.76 0
v -3.52 -5.76 0
v -3.84 -6.08 0
v -4.16 -6.08 0
v -4.16 -5.76 0
v -3.84 -5.76 0
v -4.16 -6.08 0
v -4.48 -6.08 0
v -4.48 -5.76 0
v -4.16 -5.76 0
v -3.84 -6.4 0
v -4.16 -6.4 0
v -4.16 -6.08 0
v -3.84 -6.08 0
v -4.16 -6.4 0
v -4.48 -6.4 0
v -4.48 -6.08 0
v -4.16 -6.08 0
v -11.52 -7.36 0
v -11.84 -7.36 0
v -11.84 -7.04 0
v -11.52 -7.04 0
v -11.84 -7.36 0
v -12.16 -7.36 0
v -12.16 -7.04 0
v -11.84 -7.04 0
v -12.16 -7.36 0
v -12.48 -7.36 0
v -12.48 -7.04 0
v -12.16 -7.04 0
v -11.52 -7.68 0
v -11.84 -7.68 0
v -11.84 -7.36 0
v -11.52 -7.36 0
v -11.84 -7.68 0
v -12.16 -7.68 0
v -12.16 -7.36 0
v -11.84 -7.36 0
v -12.16 -7.68 0
v -12.48 -7.68 0
v -12.48 -7.36 0
v -12.16 -7.36 0
v -11.52 -8 0
v -11.84 -8 0
v -11.84 -7.68 0
v -11.52 -7.68 0
v -11.84 -8 0
v -12.16 -8 0
v -12.16 -7.68 0
v -11.84 -7.68 0
v -12.16 -8 0
v -12.48 -8 0
v -12.48 -7.68 0
v -12.16 -7.68 0
v -6.4 -10.24 0
v -6.72 -10.24 0
v -6.72 -9.92 0
v -6.4 -9.92 0
v -6.72 -10.24 0
v -7.04 -10.24 0
v -7.04 -9.92 0
v -6.72 -9.92 0
v -7.04 -10.24 0
v -7.36 -10.24 0
v -7.36 -9.92 0
v -7.04 -9.92 0
v -6.4 -10.56 0
v -6.72 -10.56 0
v -6.72 -10.24 0
v -6.4 -10.24 0
v -6.72 -10.56 0
v -7.04 -10.56 0
v -7.04 -10.24 0
v -6.72 -10.24 0
v -7.04 -10.56 0
v -7.36 -10.56 0
v -7.36 -10.24 0
v -7.04 -10.24 0
v -6.4 -10.88 0
v -6.72 -10.88 0
v -6.72 -10.56 0
v -6.4 -10.56 0
v -6.72 -10.88 0
v -7.04 -10.88 0
v -7.04 -10.56 0
v -6.72 -10.56 0
v -7.04 -10.88 0
v -7.36 -10.88 0
v -7.36 -10.56 0
v -7.04 -10.56 0

# Texture cooridinates (Count = 16)
vt 0.5 0.6666666
vt 0.6666667 0.6666666
vt 0.6666667 1
vt 0.5 1
vt 0.8333333 0.6666666
vt 0.8333333 1
vt 1 0.6666666
vt 1 1
vt 0.5 0.3333333
vt 0.6666667 0.3333333
vt 0.8333333 0.3333333
vt 1 0.3333333
vt 0.5 0
vt 0.6666667 0
vt 0.8333333 0
vt 1 0

# Normal
vn 0 0 -1

# Mesh description
g Temple_mesh_0010

# Faces
f 1/1/1 2/2/1 3/3/1 4/4/1
f 5/2/1 6/5/1 7/6/1 8/3/1
f 9/5/1 10/7/1 11/8/1 12/6/1
f 13/9/1 14/10/1 15/2/1 16/1/1
f 17/10/1 18/11/1 19/5/1 20/2/1
f 21/11/1 22/12/1 23/7/1 24/5/1
f 25/1/1 26/2/1 27/3/1 28/4/1
f 29/2/1 30/5/1 31/6/1 32/3/1
f 33/5/1 34/7/1 35/8/1 36/6/1
f 37/13/1 38/14/1 39/10/1 40/9/1
f 41/14/1 42/15/1 43/11/1 44/10/1
f 45/15/1 46/16/1 47/12/1 48/11/1
f 49/9/1 50/10/1 51/2/1 52/1/1
f 53/10/1 54/11/1 55/5/1 56/2/1
f 57/11/1 58/12/1 59/7/1 60/5/1
f 61/13/1 62/14/1 63/10/1 64/9/1
f 65/14/1 66/15/1 67/11/1 68/10/1
f 69/15/1 70/16/1 71/12/1 72/11/1
f 73/1/1 74/2/1 75/3/1 76/4/1
f 77/2/1 78/5/1 79/6/1 80/3/1
f 81/5/1 82/7/1 83/8/1 84/6/1
f 85/9/1 86/10/1 87/2/1 88/1/1
f 89/10/1 90/11/1 91/5/1 92/2/1
f 93/11/1 94/12/1 95/7/1 96/5/1
f 97/14/1 98/15/1 99/11/1 100/10/1
f 101/15/1 102/16/1 103/12/1 104/11/1
f 105/1/1 106/2/1 107/3/1 108/4/1
f 109/2/1 110/5/1 111/6/1 112/3/1
f 113/5/1 114/7/1 115/8/1 116/6/1
f 117/9/1 118/10/1 119/2/1 120/1/1
f 121/10/1 122/11/1 123/5/1 124/2/1
f 125/11/1 126/12/1 127/7/1 128/5/1
f 129/13/1 130/14/1 131/10/1 132/9/1
f 133/14/1 134/15/1 135/11/1 136/10/1
f 137/15/1 138/16/1 139/12/1 140/11/1
f 141/1/1 142/2/1 143/3/1 144/4/1
f 145/2/1 146/5/1 147/6/1 148/3/1
f 149/5/1 150/7/1 151/8/1 152/6/1
f 153/9/1 154/10/1 155/2/1 156/1/1
f 157/10/1 158/11/1 159/5/1 160/2/1
f 161/11/1 162/12/1 163/7/1 164/5/1
f 165/13/1 166/14/1 167/10/1 168/9/1
f 169/14/1 170/15/1 171/11/1 172/10/1
f 173/15/1 174/16/1 175/12/1 176/11/1

