# Tiled2Unity generated file. Do not modify by hand.
# Wavefront file for 'Temple_mesh_0003.obj'

# Vertices (Count = 508)
v -2.56 -1.6 0
v -2.88 -1.6 0
v -2.88 -1.28 0
v -2.56 -1.28 0
v -5.12 -1.6 0
v -5.44 -1.6 0
v -5.44 -1.28 0
v -5.12 -1.28 0
v -8.639999 -1.6 0
v -8.96 -1.6 0
v -8.96 -1.28 0
v -8.639999 -1.28 0
v -10.56 -1.6 0
v -10.88 -1.6 0
v -10.88 -1.28 0
v -10.56 -1.28 0
v -14.4 -1.6 0
v -14.72 -1.6 0
v -14.72 -1.28 0
v -14.4 -1.28 0
v -1.6 -1.92 0
v -1.92 -1.92 0
v -1.92 -1.6 0
v -1.6 -1.6 0
v -2.88 -1.92 0
v -3.2 -1.92 0
v -3.2 -1.6 0
v -2.88 -1.6 0
v -4.8 -1.92 0
v -5.12 -1.92 0
v -5.12 -1.6 0
v -4.8 -1.6 0
v -5.44 -1.92 0
v -5.76 -1.92 0
v -5.76 -1.6 0
v -5.44 -1.6 0
v -9.92 -1.92 0
v -10.24 -1.92 0
v -10.24 -1.6 0
v -9.92 -1.6 0
v -13.12 -1.92 0
v -13.44 -1.92 0
v -13.44 -1.6 0
v -13.12 -1.6 0
v -13.44 -1.92 0
v -13.76 -1.92 0
v -13.76 -1.6 0
v -13.44 -1.6 0
v -14.08 -1.92 0
v -14.4 -1.92 0
v -14.4 -1.6 0
v -14.08 -1.6 0
v -14.4 -1.92 0
v -14.72 -1.92 0
v -14.72 -1.6 0
v -14.4 -1.6 0
v -1.92 -2.24 0
v -2.24 -2.24 0
v -2.24 -1.92 0
v -1.92 -1.92 0
v -4.8 -2.24 0
v -5.12 -2.24 0
v -5.12 -1.92 0
v -4.8 -1.92 0
v -5.76 -2.24 0
v -6.08 -2.24 0
v -6.08 -1.92 0
v -5.76 -1.92 0
v -9.28 -2.24 0
v -9.599999 -2.24 0
v -9.599999 -1.92 0
v -9.28 -1.92 0
v -11.2 -2.24 0
v -11.52 -2.24 0
v -11.52 -1.92 0
v -11.2 -1.92 0
v -13.12 -2.24 0
v -13.44 -2.24 0
v -13.44 -1.92 0
v -13.12 -1.92 0
v -2.56 -2.56 0
v -2.88 -2.56 0
v -2.88 -2.24 0
v -2.56 -2.24 0
v -8.32 -2.56 0
v -8.639999 -2.56 0
v -8.639999 -2.24 0
v -8.32 -2.24 0
v -10.56 -2.56 0
v -10.88 -2.56 0
v -10.88 -2.24 0
v -10.56 -2.24 0
v -12.48 -2.56 0
v -12.8 -2.56 0
v -12.8 -2.24 0
v -12.48 -2.24 0
v -14.4 -2.56 0
v -14.72 -2.56 0
v -14.72 -2.24 0
v -14.4 -2.24 0
v -1.6 -2.88 0
v -1.92 -2.88 0
v -1.92 -2.56 0
v -1.6 -2.56 0
v -2.24 -2.88 0
v -2.56 -2.88 0
v -2.56 -2.56 0
v -2.24 -2.56 0
v -3.84 -2.88 0
v -4.16 -2.88 0
v -4.16 -2.56 0
v -3.84 -2.56 0
v -4.8 -2.88 0
v -5.12 -2.88 0
v -5.12 -2.56 0
v -4.8 -2.56 0
v -5.76 -2.88 0
v -6.08 -2.88 0
v -6.08 -2.56 0
v -5.76 -2.56 0
v -7.68 -2.88 0
v -8 -2.88 0
v -8 -2.56 0
v -7.68 -2.56 0
v -10.56 -2.88 0
v -10.88 -2.88 0
v -10.88 -2.56 0
v -10.56 -2.56 0
v -2.24 -3.2 0
v -2.56 -3.2 0
v -2.56 -2.88 0
v -2.24 -2.88 0
v -8.96 -3.2 0
v -9.28 -3.2 0
v -9.28 -2.88 0
v -8.96 -2.88 0
v -14.08 -3.2 0
v -14.4 -3.2 0
v -14.4 -2.88 0
v -14.08 -2.88 0
v -6.08 -3.52 0
v -6.4 -3.52 0
v -6.4 -3.2 0
v -6.08 -3.2 0
v -6.72 -3.52 0
v -7.04 -3.52 0
v -7.04 -3.2 0
v -6.72 -3.2 0
v -7.04 -3.52 0
v -7.36 -3.52 0
v -7.36 -3.2 0
v -7.04 -3.2 0
v -8.32 -3.52 0
v -8.639999 -3.52 0
v -8.639999 -3.2 0
v -8.32 -3.2 0
v -10.88 -3.52 0
v -11.2 -3.52 0
v -11.2 -3.2 0
v -10.88 -3.2 0
v -11.84 -3.52 0
v -12.16 -3.52 0
v -12.16 -3.2 0
v -11.84 -3.2 0
v -13.76 -3.52 0
v -14.08 -3.52 0
v -14.08 -3.2 0
v -13.76 -3.2 0
v -4.48 -3.84 0
v -4.8 -3.84 0
v -4.8 -3.52 0
v -4.48 -3.52 0
v -12.48 -3.84 0
v -12.8 -3.84 0
v -12.8 -3.52 0
v -12.48 -3.52 0
v -12.8 -3.84 0
v -13.12 -3.84 0
v -13.12 -3.52 0
v -12.8 -3.52 0
v -1.92 -4.16 0
v -2.24 -4.16 0
v -2.24 -3.84 0
v -1.92 -3.84 0
v -12.48 -4.16 0
v -12.8 -4.16 0
v -12.8 -3.84 0
v -12.48 -3.84 0
v -13.12 -4.16 0
v -13.44 -4.16 0
v -13.44 -3.84 0
v -13.12 -3.84 0
v -1.92 -4.48 0
v -2.24 -4.48 0
v -2.24 -4.16 0
v -1.92 -4.16 0
v -4.16 -4.48 0
v -4.48 -4.48 0
v -4.48 -4.16 0
v -4.16 -4.16 0
v -11.84 -4.48 0
v -12.16 -4.48 0
v -12.16 -4.16 0
v -11.84 -4.16 0
v -2.24 -4.8 0
v -2.56 -4.8 0
v -2.56 -4.48 0
v -2.24 -4.48 0
v -3.2 -5.12 0
v -3.52 -5.12 0
v -3.52 -4.8 0
v -3.2 -4.8 0
v -4.48 -5.12 0
v -4.8 -5.12 0
v -4.8 -4.8 0
v -4.48 -4.8 0
v -1.92 -5.76 0
v -2.24 -5.76 0
v -2.24 -5.44 0
v -1.92 -5.44 0
v -2.88 -5.76 0
v -3.2 -5.76 0
v -3.2 -5.44 0
v -2.88 -5.44 0
v -11.84 -5.76 0
v -12.16 -5.76 0
v -12.16 -5.44 0
v -11.84 -5.44 0
v -14.08 -5.76 0
v -14.4 -5.76 0
v -14.4 -5.44 0
v -14.08 -5.44 0
v -11.52 -6.08 0
v -11.84 -6.08 0
v -11.84 -5.76 0
v -11.52 -5.76 0
v -2.88 -6.4 0
v -3.2 -6.4 0
v -3.2 -6.08 0
v -2.88 -6.08 0
v -13.12 -6.4 0
v -13.44 -6.4 0
v -13.44 -6.08 0
v -13.12 -6.08 0
v -13.44 -6.4 0
v -13.76 -6.4 0
v -13.76 -6.08 0
v -13.44 -6.08 0
v -1.28 -6.72 0
v -1.6 -6.72 0
v -1.6 -6.4 0
v -1.28 -6.4 0
v -1.6 -6.72 0
v -1.92 -6.72 0
v -1.92 -6.4 0
v -1.6 -6.4 0
v -4.48 -6.72 0
v -4.8 -6.72 0
v -4.8 -6.4 0
v -4.48 -6.4 0
v -2.88 -7.04 0
v -3.2 -7.04 0
v -3.2 -6.72 0
v -2.88 -6.72 0
v -13.76 -7.04 0
v -14.08 -7.04 0
v -14.08 -6.72 0
v -13.76 -6.72 0
v -1.6 -7.36 0
v -1.92 -7.36 0
v -1.92 -7.04 0
v -1.6 -7.04 0
v -2.88 -7.36 0
v -3.2 -7.36 0
v -3.2 -7.04 0
v -2.88 -7.04 0
v -12.48 -7.36 0
v -12.8 -7.36 0
v -12.8 -7.04 0
v -12.48 -7.04 0
v -12.8 -7.36 0
v -13.12 -7.36 0
v -13.12 -7.04 0
v -12.8 -7.04 0
v -1.92 -7.68 0
v -2.24 -7.68 0
v -2.24 -7.36 0
v -1.92 -7.36 0
v -13.12 -7.68 0
v -13.44 -7.68 0
v -13.44 -7.36 0
v -13.12 -7.36 0
v -14.08 -7.68 0
v -14.4 -7.68 0
v -14.4 -7.36 0
v -14.08 -7.36 0
v -12.48 -8 0
v -12.8 -8 0
v -12.8 -7.68 0
v -12.48 -7.68 0
v -13.12 -8 0
v -13.44 -8 0
v -13.44 -7.68 0
v -13.12 -7.68 0
v -2.88 -8.32 0
v -3.2 -8.32 0
v -3.2 -8 0
v -2.88 -8 0
v -12.48 -8.32 0
v -12.8 -8.32 0
v -12.8 -8 0
v -12.48 -8 0
v -1.6 -8.639999 0
v -1.92 -8.639999 0
v -1.92 -8.32 0
v -1.6 -8.32 0
v -4.16 -8.639999 0
v -4.48 -8.639999 0
v -4.48 -8.32 0
v -4.16 -8.32 0
v -13.44 -8.639999 0
v -13.76 -8.639999 0
v -13.76 -8.32 0
v -13.44 -8.32 0
v -3.84 -9.28 0
v -4.16 -9.28 0
v -4.16 -8.96 0
v -3.84 -8.96 0
v -11.52 -9.28 0
v -11.84 -9.28 0
v -11.84 -8.96 0
v -11.52 -8.96 0
v -13.12 -9.28 0
v -13.44 -9.28 0
v -13.44 -8.96 0
v -13.12 -8.96 0
v -2.56 -9.599999 0
v -2.88 -9.599999 0
v -2.88 -9.28 0
v -2.56 -9.28 0
v -4.48 -9.599999 0
v -4.8 -9.599999 0
v -4.8 -9.28 0
v -4.48 -9.28 0
v -13.12 -9.599999 0
v -13.44 -9.599999 0
v -13.44 -9.28 0
v -13.12 -9.28 0
v -3.2 -9.92 0
v -3.52 -9.92 0
v -3.52 -9.599999 0
v -3.2 -9.599999 0
v -8 -9.92 0
v -8.32 -9.92 0
v -8.32 -9.599999 0
v -8 -9.599999 0
v -2.24 -10.24 0
v -2.56 -10.24 0
v -2.56 -9.92 0
v -2.24 -9.92 0
v -12.8 -10.24 0
v -13.12 -10.24 0
v -13.12 -9.92 0
v -12.8 -9.92 0
v -1.92 -10.56 0
v -2.24 -10.56 0
v -2.24 -10.24 0
v -1.92 -10.24 0
v -5.12 -10.56 0
v -5.44 -10.56 0
v -5.44 -10.24 0
v -5.12 -10.24 0
v -9.28 -10.56 0
v -9.599999 -10.56 0
v -9.599999 -10.24 0
v -9.28 -10.24 0
v -9.599999 -10.56 0
v -9.92 -10.56 0
v -9.92 -10.24 0
v -9.599999 -10.24 0
v -13.76 -10.56 0
v -14.08 -10.56 0
v -14.08 -10.24 0
v -13.76 -10.24 0
v -2.88 -10.88 0
v -3.2 -10.88 0
v -3.2 -10.56 0
v -2.88 -10.56 0
v -3.84 -10.88 0
v -4.16 -10.88 0
v -4.16 -10.56 0
v -3.84 -10.56 0
v -5.76 -10.88 0
v -6.08 -10.88 0
v -6.08 -10.56 0
v -5.76 -10.56 0
v -7.36 -10.88 0
v -7.68 -10.88 0
v -7.68 -10.56 0
v -7.36 -10.56 0
v -10.88 -10.88 0
v -11.2 -10.88 0
v -11.2 -10.56 0
v -10.88 -10.56 0
v -11.84 -10.88 0
v -12.16 -10.88 0
v -12.16 -10.56 0
v -11.84 -10.56 0
v -12.8 -10.88 0
v -13.12 -10.88 0
v -13.12 -10.56 0
v -12.8 -10.56 0
v -3.2 -11.2 0
v -3.52 -11.2 0
v -3.52 -10.88 0
v -3.2 -10.88 0
v -5.76 -11.2 0
v -6.08 -11.2 0
v -6.08 -10.88 0
v -5.76 -10.88 0
v -6.08 -11.2 0
v -6.4 -11.2 0
v -6.4 -10.88 0
v -6.08 -10.88 0
v -11.84 -11.2 0
v -12.16 -11.2 0
v -12.16 -10.88 0
v -11.84 -10.88 0
v -1.28 -11.52 0
v -1.6 -11.52 0
v -1.6 -11.2 0
v -1.28 -11.2 0
v -3.52 -11.52 0
v -3.84 -11.52 0
v -3.84 -11.2 0
v -3.52 -11.2 0
v -4.16 -11.52 0
v -4.48 -11.52 0
v -4.48 -11.2 0
v -4.16 -11.2 0
v -7.36 -11.52 0
v -7.68 -11.52 0
v -7.68 -11.2 0
v -7.36 -11.2 0
v -10.24 -11.52 0
v -10.56 -11.52 0
v -10.56 -11.2 0
v -10.24 -11.2 0
v -10.56 -11.52 0
v -10.88 -11.52 0
v -10.88 -11.2 0
v -10.56 -11.2 0
v -10.88 -11.52 0
v -11.2 -11.52 0
v -11.2 -11.2 0
v -10.88 -11.2 0
v -11.2 -11.52 0
v -11.52 -11.52 0
v -11.52 -11.2 0
v -11.2 -11.2 0
v -12.16 -11.52 0
v -12.48 -11.52 0
v -12.48 -11.2 0
v -12.16 -11.2 0
v -12.48 -11.52 0
v -12.8 -11.52 0
v -12.8 -11.2 0
v -12.48 -11.2 0
v -12.8 -11.52 0
v -13.12 -11.52 0
v -13.12 -11.2 0
v -12.8 -11.2 0
v -13.76 -11.52 0
v -14.08 -11.52 0
v -14.08 -11.2 0
v -13.76 -11.2 0
v -2.88 -11.84 0
v -3.2 -11.84 0
v -3.2 -11.52 0
v -2.88 -11.52 0
v -4.16 -11.84 0
v -4.48 -11.84 0
v -4.48 -11.52 0
v -4.16 -11.52 0
v -5.44 -11.84 0
v -5.76 -11.84 0
v -5.76 -11.52 0
v -5.44 -11.52 0
v -5.76 -11.84 0
v -6.08 -11.84 0
v -6.08 -11.52 0
v -5.76 -11.52 0
v -6.72 -11.84 0
v -7.04 -11.84 0
v -7.04 -11.52 0
v -6.72 -11.52 0
v -11.84 -11.84 0
v -12.16 -11.84 0
v -12.16 -11.52 0
v -11.84 -11.52 0
v -12.48 -11.84 0
v -12.8 -11.84 0
v -12.8 -11.52 0
v -12.48 -11.52 0
v -1.6 -12.16 0
v -1.92 -12.16 0
v -1.92 -11.84 0
v -1.6 -11.84 0

# Texture cooridinates (Count = 20)
vt 0.6875 0.8125
vt 0.71875 0.8125
vt 0.71875 0.84375
vt 0.6875 0.84375
vt 0.75 0.8125
vt 0.75 0.84375
vt 0.65625 0.625
vt 0.6875 0.625
vt 0.6875 0.65625
vt 0.65625 0.65625
vt 0.71875 0.625
vt 0.75 0.625
vt 0.75 0.65625
vt 0.71875 0.65625
vt 0.65625 0.8125
vt 0.65625 0.84375
vt 0 0.1875
vt 0.03125 0.1875
vt 0.03125 0.21875
vt 0 0.21875

# Normal
vn 0 0 -1

# Mesh description
g Temple_mesh_0003

# Faces
f 1/1/1 2/2/1 3/3/1 4/4/1
f 5/1/1 6/2/1 7/3/1 8/4/1
f 9/1/1 10/2/1 11/3/1 12/4/1
f 13/2/1 14/5/1 15/6/1 16/3/1
f 17/7/1 18/8/1 19/9/1 20/10/1
f 21/1/1 22/2/1 23/3/1 24/4/1
f 25/11/1 26/12/1 27/13/1 28/14/1
f 29/15/1 30/1/1 31/4/1 32/16/1
f 33/11/1 34/12/1 35/13/1 36/14/1
f 37/15/1 38/1/1 39/4/1 40/16/1
f 41/2/1 42/5/1 43/6/1 44/3/1
f 45/2/1 46/5/1 47/6/1 48/3/1
f 49/11/1 50/12/1 51/13/1 52/14/1
f 53/11/1 54/12/1 55/13/1 56/14/1
f 57/1/1 58/2/1 59/3/1 60/4/1
f 61/15/1 62/1/1 63/4/1 64/16/1
f 65/11/1 66/12/1 67/13/1 68/14/1
f 69/7/1 70/8/1 71/9/1 72/10/1
f 73/1/1 74/2/1 75/3/1 76/4/1
f 77/1/1 78/2/1 79/3/1 80/4/1
f 81/8/1 82/11/1 83/14/1 84/9/1
f 85/15/1 86/1/1 87/4/1 88/16/1
f 89/1/1 90/2/1 91/3/1 92/4/1
f 93/7/1 94/8/1 95/9/1 96/10/1
f 97/2/1 98/5/1 99/6/1 100/3/1
f 101/15/1 102/1/1 103/4/1 104/16/1
f 105/1/1 106/2/1 107/3/1 108/4/1
f 109/11/1 110/12/1 111/13/1 112/14/1
f 113/15/1 114/1/1 115/4/1 116/16/1
f 117/1/1 118/2/1 119/3/1 120/4/1
f 121/2/1 122/5/1 123/6/1 124/3/1
f 125/2/1 126/5/1 127/6/1 128/3/1
f 129/1/1 130/2/1 131/3/1 132/4/1
f 133/7/1 134/8/1 135/9/1 136/10/1
f 137/2/1 138/5/1 139/6/1 140/3/1
f 141/7/1 142/8/1 143/9/1 144/10/1
f 145/8/1 146/11/1 147/14/1 148/9/1
f 149/1/1 150/2/1 151/3/1 152/4/1
f 153/15/1 154/1/1 155/4/1 156/16/1
f 157/1/1 158/2/1 159/3/1 160/4/1
f 161/2/1 162/5/1 163/6/1 164/3/1
f 165/1/1 166/2/1 167/3/1 168/4/1
f 169/1/1 170/2/1 171/3/1 172/4/1
f 173/2/1 174/5/1 175/6/1 176/3/1
f 177/15/1 178/1/1 179/4/1 180/16/1
f 181/15/1 182/1/1 183/4/1 184/16/1
f 185/15/1 186/1/1 187/4/1 188/16/1
f 189/15/1 190/1/1 191/4/1 192/16/1
f 193/15/1 194/1/1 195/4/1 196/16/1
f 197/15/1 198/1/1 199/4/1 200/16/1
f 201/1/1 202/2/1 203/3/1 204/4/1
f 205/2/1 206/5/1 207/6/1 208/3/1
f 209/11/1 210/12/1 211/13/1 212/14/1
f 213/1/1 214/2/1 215/3/1 216/4/1
f 217/1/1 218/2/1 219/3/1 220/4/1
f 221/11/1 222/12/1 223/13/1 224/14/1
f 225/1/1 226/2/1 227/3/1 228/4/1
f 229/15/1 230/1/1 231/4/1 232/16/1
f 233/1/1 234/2/1 235/3/1 236/4/1
f 237/2/1 238/5/1 239/6/1 240/3/1
f 241/2/1 242/5/1 243/6/1 244/3/1
f 245/2/1 246/5/1 247/6/1 248/3/1
f 249/2/1 250/5/1 251/6/1 252/3/1
f 253/2/1 254/5/1 255/6/1 256/3/1
f 257/15/1 258/1/1 259/4/1 260/16/1
f 261/1/1 262/2/1 263/3/1 264/4/1
f 265/1/1 266/2/1 267/3/1 268/4/1
f 269/11/1 270/12/1 271/13/1 272/14/1
f 273/15/1 274/1/1 275/4/1 276/16/1
f 277/17/1 278/18/1 279/19/1 280/20/1
f 281/2/1 282/5/1 283/6/1 284/3/1
f 285/2/1 286/5/1 287/6/1 288/3/1
f 289/1/1 290/2/1 291/3/1 292/4/1
f 293/1/1 294/2/1 295/3/1 296/4/1
f 297/15/1 298/1/1 299/4/1 300/16/1
f 301/15/1 302/1/1 303/4/1 304/16/1
f 305/15/1 306/1/1 307/4/1 308/16/1
f 309/2/1 310/5/1 311/6/1 312/3/1
f 313/15/1 314/1/1 315/4/1 316/16/1
f 317/2/1 318/5/1 319/6/1 320/3/1
f 321/1/1 322/2/1 323/3/1 324/4/1
f 325/2/1 326/5/1 327/6/1 328/3/1
f 329/1/1 330/2/1 331/3/1 332/4/1
f 333/1/1 334/2/1 335/3/1 336/4/1
f 337/11/1 338/12/1 339/13/1 340/14/1
f 341/1/1 342/2/1 343/3/1 344/4/1
f 345/15/1 346/1/1 347/4/1 348/16/1
f 349/15/1 350/1/1 351/4/1 352/16/1
f 353/1/1 354/2/1 355/3/1 356/4/1
f 357/8/1 358/11/1 359/14/1 360/9/1
f 361/1/1 362/2/1 363/3/1 364/4/1
f 365/15/1 366/1/1 367/4/1 368/16/1
f 369/1/1 370/2/1 371/3/1 372/4/1
f 373/1/1 374/2/1 375/3/1 376/4/1
f 377/2/1 378/5/1 379/6/1 380/3/1
f 381/2/1 382/5/1 383/6/1 384/3/1
f 385/15/1 386/1/1 387/4/1 388/16/1
f 389/11/1 390/12/1 391/13/1 392/14/1
f 393/1/1 394/2/1 395/3/1 396/4/1
f 397/11/1 398/12/1 399/13/1 400/14/1
f 401/8/1 402/11/1 403/14/1 404/9/1
f 405/2/1 406/5/1 407/6/1 408/3/1
f 409/15/1 410/1/1 411/4/1 412/16/1
f 413/15/1 414/1/1 415/4/1 416/16/1
f 417/2/1 418/5/1 419/6/1 420/3/1
f 421/15/1 422/1/1 423/4/1 424/16/1
f 425/15/1 426/1/1 427/4/1 428/16/1
f 429/2/1 430/5/1 431/6/1 432/3/1
f 433/2/1 434/5/1 435/6/1 436/3/1
f 437/1/1 438/2/1 439/3/1 440/4/1
f 441/1/1 442/2/1 443/3/1 444/4/1
f 445/1/1 446/2/1 447/3/1 448/4/1
f 449/1/1 450/2/1 451/3/1 452/4/1
f 453/15/1 454/1/1 455/4/1 456/16/1
f 457/1/1 458/2/1 459/3/1 460/4/1
f 461/15/1 462/1/1 463/4/1 464/16/1
f 465/2/1 466/5/1 467/6/1 468/3/1
f 469/15/1 470/1/1 471/4/1 472/16/1
f 473/15/1 474/1/1 475/4/1 476/16/1
f 477/15/1 478/1/1 479/4/1 480/16/1
f 481/2/1 482/5/1 483/6/1 484/3/1
f 485/2/1 486/5/1 487/6/1 488/3/1
f 489/15/1 490/1/1 491/4/1 492/16/1
f 493/2/1 494/5/1 495/6/1 496/3/1
f 497/15/1 498/1/1 499/4/1 500/16/1
f 501/2/1 502/5/1 503/6/1 504/3/1
f 505/2/1 506/5/1 507/6/1 508/3/1

