# Tiled2Unity generated file. Do not modify by hand.
# Wavefront file for 'CastleHalls2_mesh_0016.obj'

# Vertices (Count = 16)
v 0 -4.48 0
v -0.32 -4.48 0
v -0.32 -4.16 0
v 0 -4.16 0
v -0.32 -4.48 0
v -0.64 -4.48 0
v -0.64 -4.16 0
v -0.32 -4.16 0
v 0 -4.8 0
v -0.32 -4.8 0
v -0.32 -4.48 0
v 0 -4.48 0
v 0 -5.12 0
v -0.32 -5.12 0
v -0.32 -4.8 0
v 0 -4.8 0

# Texture cooridinates (Count = 4)
vt 0.2 0.7
vt 0.3 0.7
vt 0.3 0.8
vt 0.2 0.8

# Normal
vn 0 0 -1

# Mesh description
g CastleHalls2_mesh_0016

# Faces
f 1/1/1 2/2/1 3/3/1 4/4/1
f 5/1/1 6/2/1 7/3/1 8/4/1
f 9/1/1 10/2/1 11/3/1 12/4/1
f 13/1/1 14/2/1 15/3/1 16/4/1

