# Tiled2Unity generated file. Do not modify by hand.
# Wavefront file for 'CastleHalls2_mesh_0004.obj'

# Vertices (Count = 16)
v -22.08 -4.16 0
v -22.4 -4.16 0
v -22.4 -3.84 0
v -22.08 -3.84 0
v -22.08 -4.48 0
v -22.4 -4.48 0
v -22.4 -4.16 0
v -22.08 -4.16 0
v -22.08 -4.8 0
v -22.4 -4.8 0
v -22.4 -4.48 0
v -22.08 -4.48 0
v -22.08 -5.12 0
v -22.4 -5.12 0
v -22.4 -4.8 0
v -22.08 -4.8 0

# Texture cooridinates (Count = 10)
vt 0.625 0.59375
vt 0.65625 0.59375
vt 0.65625 0.625
vt 0.625 0.625
vt 0.625 0.5625
vt 0.65625 0.5625
vt 0.625 0.53125
vt 0.65625 0.53125
vt 0.625 0.5
vt 0.65625 0.5

# Normal
vn 0 0 -1

# Mesh description
g CastleHalls2_mesh_0004

# Faces
f 1/1/1 2/2/1 3/3/1 4/4/1
f 5/5/1 6/6/1 7/2/1 8/1/1
f 9/7/1 10/8/1 11/6/1 12/5/1
f 13/9/1 14/10/1 15/8/1 16/7/1

