# Tiled2Unity generated file. Do not modify by hand.
# Wavefront file for 'CastleHalls2_mesh_0008.obj'

# Vertices (Count = 40)
v -7.36 -0.64 0
v -7.68 -0.64 0
v -7.68 -0.32 0
v -7.36 -0.32 0
v -10.24 -0.64 0
v -10.56 -0.64 0
v -10.56 -0.32 0
v -10.24 -0.32 0
v -11.2 -0.64 0
v -11.52 -0.64 0
v -11.52 -0.32 0
v -11.2 -0.32 0
v -15.36 -0.64 0
v -15.68 -0.64 0
v -15.68 -0.32 0
v -15.36 -0.32 0
v -5.12 -0.96 0
v -5.44 -0.96 0
v -5.44 -0.64 0
v -5.12 -0.64 0
v -5.44 -0.96 0
v -5.76 -0.96 0
v -5.76 -0.64 0
v -5.44 -0.64 0
v -7.36 -0.96 0
v -7.68 -0.96 0
v -7.68 -0.64 0
v -7.36 -0.64 0
v -10.24 -0.96 0
v -10.56 -0.96 0
v -10.56 -0.64 0
v -10.24 -0.64 0
v -11.2 -0.96 0
v -11.52 -0.96 0
v -11.52 -0.64 0
v -11.2 -0.64 0
v -15.36 -0.96 0
v -15.68 -0.96 0
v -15.68 -0.64 0
v -15.36 -0.64 0

# Texture cooridinates (Count = 10)
vt 0.4 0.75
vt 0.6 0.75
vt 0.6 1
vt 0.4 1
vt 0 0.5
vt 0.2 0.5
vt 0.2 0.75
vt 0 0.75
vt 0.4 0.5
vt 0.6 0.5

# Normal
vn 0 0 -1

# Mesh description
g CastleHalls2_mesh_0008

# Faces
f 1/1/1 2/2/1 3/3/1 4/4/1
f 5/1/1 6/2/1 7/3/1 8/4/1
f 9/1/1 10/2/1 11/3/1 12/4/1
f 13/1/1 14/2/1 15/3/1 16/4/1
f 17/5/1 18/6/1 19/7/1 20/8/1
f 21/6/1 22/9/1 23/1/1 24/7/1
f 25/9/1 26/10/1 27/2/1 28/1/1
f 29/9/1 30/10/1 31/2/1 32/1/1
f 33/9/1 34/10/1 35/2/1 36/1/1
f 37/9/1 38/10/1 39/2/1 40/1/1

