# Tiled2Unity generated file. Do not modify by hand.
# Wavefront file for 'Oasis_mesh_0011.obj'

# Vertices (Count = 104)
v -16 -144 0
v -32 -144 0
v -32 -128 0
v -16 -128 0
v -32 -144 0
v -48 -144 0
v -48 -128 0
v -32 -128 0
v -16 -160 0
v -32 -160 0
v -32 -144 0
v -16 -144 0
v -32 -160 0
v -48 -160 0
v -48 -144 0
v -32 -144 0
v -144 -160 0
v -160 -160 0
v -160 -144 0
v -144 -144 0
v -128 -176 0
v -144 -176 0
v -144 -160 0
v -128 -160 0
v -144 -176 0
v -160 -176 0
v -160 -160 0
v -144 -160 0
v -128 -192 0
v -144 -192 0
v -144 -176 0
v -128 -176 0
v -48 -560 0
v -64 -560 0
v -64 -544 0
v -48 -544 0
v -48 -576 0
v -64 -576 0
v -64 -560 0
v -48 -560 0
v -800 -576 0
v -816 -576 0
v -816 -560 0
v -800 -560 0
v -576 -592 0
v -592 -592 0
v -592 -576 0
v -576 -576 0
v -784 -592 0
v -800 -592 0
v -800 -576 0
v -784 -576 0
v -800 -592 0
v -816 -592 0
v -816 -576 0
v -800 -576 0
v -208 -608 0
v -224 -608 0
v -224 -592 0
v -208 -592 0
v -576 -608 0
v -592 -608 0
v -592 -592 0
v -576 -592 0
v -784 -608 0
v -800 -608 0
v -800 -592 0
v -784 -592 0
v -208 -624 0
v -224 -624 0
v -224 -608 0
v -208 -608 0
v -1040 -624 0
v -1056 -624 0
v -1056 -608 0
v -1040 -608 0
v -1056 -624 0
v -1072 -624 0
v -1072 -608 0
v -1056 -608 0
v -1040 -640 0
v -1056 -640 0
v -1056 -624 0
v -1040 -624 0
v -1056 -640 0
v -1072 -640 0
v -1072 -624 0
v -1056 -624 0
v -272 -656 0
v -288 -656 0
v -288 -640 0
v -272 -640 0
v -288 -656 0
v -304 -656 0
v -304 -640 0
v -288 -640 0
v -272 -672 0
v -288 -672 0
v -288 -656 0
v -272 -656 0
v -288 -672 0
v -304 -672 0
v -304 -656 0
v -288 -656 0

# Texture cooridinates (Count = 15)
vt 0.5 0.5
vt 0.75 0.5
vt 0.75 1
vt 0.5 1
vt 1 0.5
vt 1 1
vt 0.5 0
vt 0.75 0
vt 1 0
vt 0 0.5
vt 0.25 0.5
vt 0.25 1
vt 0 1
vt 0 0
vt 0.25 0

# Normal
vn 0 0 -1

# Mesh description
g Oasis_mesh_0011

# Faces
f 1/1/1 2/2/1 3/3/1 4/4/1
f 5/2/1 6/5/1 7/6/1 8/3/1
f 9/7/1 10/8/1 11/2/1 12/1/1
f 13/8/1 14/9/1 15/5/1 16/2/1
f 17/10/1 18/11/1 19/12/1 20/13/1
f 21/11/1 22/1/1 23/4/1 24/12/1
f 25/14/1 26/15/1 27/11/1 28/10/1
f 29/15/1 30/7/1 31/1/1 32/11/1
f 33/10/1 34/11/1 35/12/1 36/13/1
f 37/14/1 38/15/1 39/11/1 40/10/1
f 41/11/1 42/1/1 43/4/1 44/12/1
f 45/10/1 46/11/1 47/12/1 48/13/1
f 49/11/1 50/1/1 51/4/1 52/12/1
f 53/15/1 54/7/1 55/1/1 56/11/1
f 57/11/1 58/1/1 59/4/1 60/12/1
f 61/14/1 62/15/1 63/11/1 64/10/1
f 65/15/1 66/7/1 67/1/1 68/11/1
f 69/15/1 70/7/1 71/1/1 72/11/1
f 73/1/1 74/2/1 75/3/1 76/4/1
f 77/2/1 78/5/1 79/6/1 80/3/1
f 81/7/1 82/8/1 83/2/1 84/1/1
f 85/8/1 86/9/1 87/5/1 88/2/1
f 89/1/1 90/2/1 91/3/1 92/4/1
f 93/2/1 94/5/1 95/6/1 96/3/1
f 97/7/1 98/8/1 99/2/1 100/1/1
f 101/8/1 102/9/1 103/5/1 104/2/1

