# Tiled2Unity generated file. Do not modify by hand.
# Wavefront file for 'Oasis_mesh_0029.obj'

# Vertices (Count = 112)
v -816 -128 0
v -832 -128 0
v -832 -112 0
v -816 -112 0
v -832 -128 0
v -848 -128 0
v -848 -112 0
v -832 -112 0
v -848 -128 0
v -864 -128 0
v -864 -112 0
v -848 -112 0
v -864 -128 0
v -880 -128 0
v -880 -112 0
v -864 -112 0
v -880 -128 0
v -896 -128 0
v -896 -112 0
v -880 -112 0
v -816 -144 0
v -832 -144 0
v -832 -128 0
v -816 -128 0
v -832 -144 0
v -848 -144 0
v -848 -128 0
v -832 -128 0
v -848 -144 0
v -864 -144 0
v -864 -128 0
v -848 -128 0
v -864 -144 0
v -880 -144 0
v -880 -128 0
v -864 -128 0
v -880 -144 0
v -896 -144 0
v -896 -128 0
v -880 -128 0
v -816 -160 0
v -832 -160 0
v -832 -144 0
v -816 -144 0
v -832 -160 0
v -848 -160 0
v -848 -144 0
v -832 -144 0
v -848 -160 0
v -864 -160 0
v -864 -144 0
v -848 -144 0
v -864 -160 0
v -880 -160 0
v -880 -144 0
v -864 -144 0
v -880 -160 0
v -896 -160 0
v -896 -144 0
v -880 -144 0
v -816 -192 0
v -832 -192 0
v -832 -176 0
v -816 -176 0
v -832 -192 0
v -848 -192 0
v -848 -176 0
v -832 -176 0
v -848 -192 0
v -864 -192 0
v -864 -176 0
v -848 -176 0
v -864 -192 0
v -880 -192 0
v -880 -176 0
v -864 -176 0
v -880 -192 0
v -896 -192 0
v -896 -176 0
v -880 -176 0
v -1008 -576 0
v -1024 -576 0
v -1024 -560 0
v -1008 -560 0
v -1024 -576 0
v -1040 -576 0
v -1040 -560 0
v -1024 -560 0
v -1008 -592 0
v -1024 -592 0
v -1024 -576 0
v -1008 -576 0
v -1024 -592 0
v -1040 -592 0
v -1040 -576 0
v -1024 -576 0
v -1008 -608 0
v -1024 -608 0
v -1024 -592 0
v -1008 -592 0
v -1024 -608 0
v -1040 -608 0
v -1040 -592 0
v -1024 -592 0
v -1008 -624 0
v -1024 -624 0
v -1024 -608 0
v -1008 -608 0
v -1024 -624 0
v -1040 -624 0
v -1040 -608 0
v -1024 -608 0

# Texture cooridinates (Count = 25)
vt 0 0.1428571
vt 0.1666667 0.1428571
vt 0.1666667 0.2857143
vt 0 0.2857143
vt 0.3333333 0.1428571
vt 0.3333333 0.2857143
vt 0.5 0.1428571
vt 0.5 0.2857143
vt 0.5 0
vt 0.6666667 0
vt 0.6666667 0.1428571
vt 0.8333333 0
vt 0.8333333 0.1428571
vt 0.1666667 0
vt 0.3333333 0
vt 0.6666667 0.5714285
vt 0.8333333 0.5714285
vt 0.8333333 0.7142857
vt 0.6666667 0.7142857
vt 0.1666667 0.5714285
vt 0.3333333 0.5714285
vt 0.3333333 0.7142857
vt 0.1666667 0.7142857
vt 0.1666667 0.4285714
vt 0.3333333 0.4285714

# Normal
vn 0 0 -1

# Mesh description
g Oasis_mesh_0029

# Faces
f 1/1/1 2/2/1 3/3/1 4/4/1
f 5/2/1 6/5/1 7/6/1 8/3/1
f 9/2/1 10/5/1 11/6/1 12/3/1
f 13/2/1 14/5/1 15/6/1 16/3/1
f 17/5/1 18/7/1 19/8/1 20/6/1
f 21/9/1 22/10/1 23/11/1 24/7/1
f 25/9/1 26/10/1 27/11/1 28/7/1
f 29/9/1 30/10/1 31/11/1 32/7/1
f 33/9/1 34/10/1 35/11/1 36/7/1
f 37/10/1 38/12/1 39/13/1 40/11/1
f 41/9/1 42/10/1 43/11/1 44/7/1
f 45/14/1 46/15/1 47/5/1 48/2/1
f 49/14/1 50/15/1 51/5/1 52/2/1
f 53/14/1 54/15/1 55/5/1 56/2/1
f 57/15/1 58/9/1 59/7/1 60/5/1
f 61/16/1 62/17/1 63/18/1 64/19/1
f 65/16/1 66/17/1 67/18/1 68/19/1
f 69/16/1 70/17/1 71/18/1 72/19/1
f 73/16/1 74/17/1 75/18/1 76/19/1
f 77/16/1 78/17/1 79/18/1 80/19/1
f 81/20/1 82/21/1 83/22/1 84/23/1
f 85/20/1 86/21/1 87/22/1 88/23/1
f 89/24/1 90/25/1 91/21/1 92/20/1
f 93/24/1 94/25/1 95/21/1 96/20/1
f 97/24/1 98/25/1 99/21/1 100/20/1
f 101/24/1 102/25/1 103/21/1 104/20/1
f 105/3/1 106/6/1 107/25/1 108/24/1
f 109/3/1 110/6/1 111/25/1 112/24/1

