# Tiled2Unity generated file. Do not modify by hand.
# Wavefront file for 'Oasis_mesh_0007.obj'

# Vertices (Count = 220)
v -12.16 -0.64 0
v -12.48 -0.64 0
v -12.48 -0.32 0
v -12.16 -0.32 0
v -18.56 -0.64 0
v -18.88 -0.64 0
v -18.88 -0.32 0
v -18.56 -0.32 0
v -22.08 -0.64 0
v -22.4 -0.64 0
v -22.4 -0.32 0
v -22.08 -0.32 0
v -15.36 -0.96 0
v -15.68 -0.96 0
v -15.68 -0.64 0
v -15.36 -0.64 0
v -21.44 -0.96 0
v -21.76 -0.96 0
v -21.76 -0.64 0
v -21.44 -0.64 0
v -17.92 -1.28 0
v -18.24 -1.28 0
v -18.24 -0.96 0
v -17.92 -0.96 0
v -18.88 -1.6 0
v -19.2 -1.6 0
v -19.2 -1.28 0
v -18.88 -1.28 0
v -20.16 -1.6 0
v -20.48 -1.6 0
v -20.48 -1.28 0
v -20.16 -1.28 0
v -15.36 -1.92 0
v -15.68 -1.92 0
v -15.68 -1.6 0
v -15.36 -1.6 0
v -13.76 -2.56 0
v -14.08 -2.56 0
v -14.08 -2.24 0
v -13.76 -2.24 0
v -18.56 -2.88 0
v -18.88 -2.88 0
v -18.88 -2.56 0
v -18.56 -2.56 0
v -21.76 -2.88 0
v -22.08 -2.88 0
v -22.08 -2.56 0
v -21.76 -2.56 0
v -15.04 -3.52 0
v -15.36 -3.52 0
v -15.36 -3.2 0
v -15.04 -3.2 0
v -12.8 -3.84 0
v -13.12 -3.84 0
v -13.12 -3.52 0
v -12.8 -3.52 0
v -17.6 -3.84 0
v -17.92 -3.84 0
v -17.92 -3.52 0
v -17.6 -3.52 0
v -20.48 -5.12 0
v -20.8 -5.12 0
v -20.8 -4.8 0
v -20.48 -4.8 0
v -18.24 -6.08 0
v -18.56 -6.08 0
v -18.56 -5.76 0
v -18.24 -5.76 0
v -14.08 -7.36 0
v -14.4 -7.36 0
v -14.4 -7.04 0
v -14.08 -7.04 0
v -18.88 -7.36 0
v -19.2 -7.36 0
v -19.2 -7.04 0
v -18.88 -7.04 0
v -12.48 -7.68 0
v -12.8 -7.68 0
v -12.8 -7.36 0
v -12.48 -7.36 0
v -14.08 -7.68 0
v -14.4 -7.68 0
v -14.4 -7.36 0
v -14.08 -7.36 0
v -11.2 -8 0
v -11.52 -8 0
v -11.52 -7.68 0
v -11.2 -7.68 0
v -14.72 -8 0
v -15.04 -8 0
v -15.04 -7.68 0
v -14.72 -7.68 0
v -11.84 -8.32 0
v -12.16 -8.32 0
v -12.16 -8 0
v -11.84 -8 0
v -13.76 -8.32 0
v -14.08 -8.32 0
v -14.08 -8 0
v -13.76 -8 0
v -14.08 -8.639999 0
v -14.4 -8.639999 0
v -14.4 -8.32 0
v -14.08 -8.32 0
v -15.04 -8.639999 0
v -15.36 -8.639999 0
v -15.36 -8.32 0
v -15.04 -8.32 0
v -9.28 -8.96 0
v -9.599999 -8.96 0
v -9.599999 -8.639999 0
v -9.28 -8.639999 0
v -11.2 -8.96 0
v -11.52 -8.96 0
v -11.52 -8.639999 0
v -11.2 -8.639999 0
v -11.52 -9.28 0
v -11.84 -9.28 0
v -11.84 -8.96 0
v -11.52 -8.96 0
v -12.8 -9.28 0
v -13.12 -9.28 0
v -13.12 -8.96 0
v -12.8 -8.96 0
v -14.72 -9.28 0
v -15.04 -9.28 0
v -15.04 -8.96 0
v -14.72 -8.96 0
v -15.36 -9.28 0
v -15.68 -9.28 0
v -15.68 -8.96 0
v -15.36 -8.96 0
v -0.64 -9.599999 0
v -0.96 -9.599999 0
v -0.96 -9.28 0
v -0.64 -9.28 0
v -0.96 -9.599999 0
v -1.28 -9.599999 0
v -1.28 -9.28 0
v -0.96 -9.28 0
v -0.64 -9.92 0
v -0.96 -9.92 0
v -0.96 -9.599999 0
v -0.64 -9.599999 0
v -0.96 -9.92 0
v -1.28 -9.92 0
v -1.28 -9.599999 0
v -0.96 -9.599999 0
v -4.48 -9.92 0
v -4.8 -9.92 0
v -4.8 -9.599999 0
v -4.48 -9.599999 0
v -14.72 -9.92 0
v -15.04 -9.92 0
v -15.04 -9.599999 0
v -14.72 -9.599999 0
v -21.44 -9.92 0
v -21.76 -9.92 0
v -21.76 -9.599999 0
v -21.44 -9.599999 0
v -7.04 -10.24 0
v -7.36 -10.24 0
v -7.36 -9.92 0
v -7.04 -9.92 0
v -11.2 -10.24 0
v -11.52 -10.24 0
v -11.52 -9.92 0
v -11.2 -9.92 0
v -11.52 -10.24 0
v -11.84 -10.24 0
v -11.84 -9.92 0
v -11.52 -9.92 0
v -12.16 -10.56 0
v -12.48 -10.56 0
v -12.48 -10.24 0
v -12.16 -10.24 0
v -13.76 -10.56 0
v -14.08 -10.56 0
v -14.08 -10.24 0
v -13.76 -10.24 0
v -16.64 -10.56 0
v -16.96 -10.56 0
v -16.96 -10.24 0
v -16.64 -10.24 0
v -20.48 -10.56 0
v -20.8 -10.56 0
v -20.8 -10.24 0
v -20.48 -10.24 0
v -21.76 -11.2 0
v -22.08 -11.2 0
v -22.08 -10.88 0
v -21.76 -10.88 0
v -14.4 -12.8 0
v -14.72 -12.8 0
v -14.72 -12.48 0
v -14.4 -12.48 0
v -19.2 -13.76 0
v -19.52 -13.76 0
v -19.52 -13.44 0
v -19.2 -13.44 0
v -20.48 -13.76 0
v -20.8 -13.76 0
v -20.8 -13.44 0
v -20.48 -13.44 0
v -14.4 -14.08 0
v -14.72 -14.08 0
v -14.72 -13.76 0
v -14.4 -13.76 0
v -17.6 -14.4 0
v -17.92 -14.4 0
v -17.92 -14.08 0
v -17.6 -14.08 0
v -16.32 -14.72 0
v -16.64 -14.72 0
v -16.64 -14.4 0
v -16.32 -14.4 0
v -17.92 -15.36 0
v -18.24 -15.36 0
v -18.24 -15.04 0
v -17.92 -15.04 0

# Texture cooridinates (Count = 54)
vt 0.3125 0.0625
vt 0.34375 0.0625
vt 0.34375 0.09375
vt 0.3125 0.09375
vt 0.65625 0.3125
vt 0.6875 0.3125
vt 0.6875 0.34375
vt 0.65625 0.34375
vt 0.75 0.3125
vt 0.78125 0.3125
vt 0.78125 0.34375
vt 0.75 0.34375
vt 0.71875 0.3125
vt 0.71875 0.34375
vt 0.8125 0.3125
vt 0.8125 0.34375
vt 0.375 0.09375
vt 0.40625 0.09375
vt 0.40625 0.125
vt 0.375 0.125
vt 0.40625 0
vt 0.4375 0
vt 0.4375 0.03125
vt 0.40625 0.03125
vt 0.3125 0.1875
vt 0.34375 0.1875
vt 0.34375 0.21875
vt 0.3125 0.21875
vt 0.375 0.0625
vt 0.40625 0.0625
vt 0.28125 0.125
vt 0.3125 0.125
vt 0.3125 0.15625
vt 0.28125 0.15625
vt 0.34375 0.125
vt 0.4375 0.09375
vt 0.46875 0.09375
vt 0.46875 0.125
vt 0.4375 0.125
vt 0.34375 0.15625
vt 0.34375 0.53125
vt 0.375 0.53125
vt 0.375 0.5625
vt 0.34375 0.5625
vt 0.40625 0.53125
vt 0.40625 0.5625
vt 0.34375 0.5
vt 0.375 0.5
vt 0.40625 0.5
vt 0.28125 0.09375
vt 0.40625 0.21875
vt 0.4375 0.21875
vt 0.4375 0.25
vt 0.40625 0.25

# Normal
vn 0 0 -1

# Mesh description
g Oasis_mesh_0007

# Faces
f 1/1/1 2/2/1 3/3/1 4/4/1
f 5/5/1 6/6/1 7/7/1 8/8/1
f 9/5/1 10/6/1 11/7/1 12/8/1
f 13/1/1 14/2/1 15/3/1 16/4/1
f 17/9/1 18/10/1 19/11/1 20/12/1
f 21/6/1 22/13/1 23/14/1 24/7/1
f 25/10/1 26/15/1 27/16/1 28/11/1
f 29/6/1 30/13/1 31/14/1 32/7/1
f 33/10/1 34/15/1 35/16/1 36/11/1
f 37/10/1 38/15/1 39/16/1 40/11/1
f 41/13/1 42/9/1 43/12/1 44/14/1
f 45/6/1 46/13/1 47/14/1 48/7/1
f 49/9/1 50/10/1 51/11/1 52/12/1
f 53/10/1 54/15/1 55/16/1 56/11/1
f 57/10/1 58/15/1 59/16/1 60/11/1
f 61/13/1 62/9/1 63/12/1 64/14/1
f 65/10/1 66/15/1 67/16/1 68/11/1
f 69/17/1 70/18/1 71/19/1 72/20/1
f 73/10/1 74/15/1 75/16/1 76/11/1
f 77/21/1 78/22/1 79/23/1 80/24/1
f 81/25/1 82/26/1 83/27/1 84/28/1
f 85/13/1 86/9/1 87/12/1 88/14/1
f 89/29/1 90/30/1 91/18/1 92/17/1
f 93/21/1 94/22/1 95/23/1 96/24/1
f 97/13/1 98/9/1 99/12/1 100/14/1
f 101/31/1 102/32/1 103/33/1 104/34/1
f 105/9/1 106/10/1 107/11/1 108/12/1
f 109/6/1 110/13/1 111/14/1 112/7/1
f 113/4/1 114/3/1 115/35/1 116/32/1
f 117/25/1 118/26/1 119/27/1 120/28/1
f 121/10/1 122/15/1 123/16/1 124/11/1
f 125/36/1 126/37/1 127/38/1 128/39/1
f 129/33/1 130/40/1 131/26/1 132/25/1
f 133/41/1 134/42/1 135/43/1 136/44/1
f 137/42/1 138/45/1 139/46/1 140/43/1
f 141/47/1 142/48/1 143/42/1 144/41/1
f 145/48/1 146/49/1 147/45/1 148/42/1
f 149/5/1 150/6/1 151/7/1 152/8/1
f 153/9/1 154/10/1 155/11/1 156/12/1
f 157/6/1 158/13/1 159/14/1 160/7/1
f 161/10/1 162/15/1 163/16/1 164/11/1
f 165/50/1 166/4/1 167/32/1 168/31/1
f 169/51/1 170/52/1 171/53/1 172/54/1
f 173/21/1 174/22/1 175/23/1 176/24/1
f 177/32/1 178/35/1 179/40/1 180/33/1
f 181/1/1 182/2/1 183/3/1 184/4/1
f 185/9/1 186/10/1 187/11/1 188/12/1
f 189/5/1 190/6/1 191/7/1 192/8/1
f 193/13/1 194/9/1 195/12/1 196/14/1
f 197/6/1 198/13/1 199/14/1 200/7/1
f 201/13/1 202/9/1 203/12/1 204/14/1
f 205/9/1 206/10/1 207/11/1 208/12/1
f 209/10/1 210/15/1 211/16/1 212/11/1
f 213/5/1 214/6/1 215/7/1 216/8/1
f 217/5/1 218/6/1 219/7/1 220/8/1

