# Tiled2Unity generated file. Do not modify by hand.
# Wavefront file for 'Oasis_mesh_0006.obj'

# Vertices (Count = 196)
v 0 -16 0
v -16 -16 0
v -16 0 0
v 0 0 0
v -112 -16 0
v -128 -16 0
v -128 0 0
v -112 0 0
v -464 -16 0
v -480 -16 0
v -480 0 0
v -464 0 0
v 0 -32 0
v -16 -32 0
v -16 -16 0
v 0 -16 0
v -16 -32 0
v -32 -32 0
v -32 -16 0
v -16 -16 0
v -160 -32 0
v -176 -32 0
v -176 -16 0
v -160 -16 0
v -512 -32 0
v -528 -32 0
v -528 -16 0
v -512 -16 0
v 0 -48 0
v -16 -48 0
v -16 -32 0
v 0 -32 0
v -32 -48 0
v -48 -48 0
v -48 -32 0
v -32 -32 0
v -112 -48 0
v -128 -48 0
v -128 -32 0
v -112 -32 0
v -384 -48 0
v -400 -48 0
v -400 -32 0
v -384 -32 0
v 0 -64 0
v -16 -64 0
v -16 -48 0
v 0 -48 0
v -32 -64 0
v -48 -64 0
v -48 -48 0
v -32 -48 0
v -128 -64 0
v -144 -64 0
v -144 -48 0
v -128 -48 0
v -288 -64 0
v -304 -64 0
v -304 -48 0
v -288 -48 0
v -480 -64 0
v -496 -64 0
v -496 -48 0
v -480 -48 0
v 0 -80 0
v -16 -80 0
v -16 -64 0
v 0 -64 0
v -144 -80 0
v -160 -80 0
v -160 -64 0
v -144 -64 0
v 0 -96 0
v -16 -96 0
v -16 -80 0
v 0 -80 0
v -80 -96 0
v -96 -96 0
v -96 -80 0
v -80 -80 0
v -304 -96 0
v -320 -96 0
v -320 -80 0
v -304 -80 0
v 0 -112 0
v -16 -112 0
v -16 -96 0
v 0 -96 0
v -16 -112 0
v -32 -112 0
v -32 -96 0
v -16 -96 0
v -144 -112 0
v -160 -112 0
v -160 -96 0
v -144 -96 0
v -304 -112 0
v -320 -112 0
v -320 -96 0
v -304 -96 0
v -448 -112 0
v -464 -112 0
v -464 -96 0
v -448 -96 0
v 0 -128 0
v -16 -128 0
v -16 -112 0
v 0 -112 0
v -96 -128 0
v -112 -128 0
v -112 -112 0
v -96 -112 0
v -400 -128 0
v -416 -128 0
v -416 -112 0
v -400 -112 0
v 0 -144 0
v -16 -144 0
v -16 -128 0
v 0 -128 0
v -48 -144 0
v -64 -144 0
v -64 -128 0
v -48 -128 0
v -64 -144 0
v -80 -144 0
v -80 -128 0
v -64 -128 0
v 0 -160 0
v -16 -160 0
v -16 -144 0
v 0 -144 0
v -144 -160 0
v -160 -160 0
v -160 -144 0
v -144 -144 0
v 0 -176 0
v -16 -176 0
v -16 -160 0
v 0 -160 0
v -16 -176 0
v -32 -176 0
v -32 -160 0
v -16 -160 0
v -112 -176 0
v -128 -176 0
v -128 -160 0
v -112 -160 0
v -496 -176 0
v -512 -176 0
v -512 -160 0
v -496 -160 0
v -544 -176 0
v -560 -176 0
v -560 -160 0
v -544 -160 0
v 0 -192 0
v -16 -192 0
v -16 -176 0
v 0 -176 0
v -272 -192 0
v -288 -192 0
v -288 -176 0
v -272 -176 0
v -288 -192 0
v -304 -192 0
v -304 -176 0
v -288 -176 0
v -432 -192 0
v -448 -192 0
v -448 -176 0
v -432 -176 0
v -544 -192 0
v -560 -192 0
v -560 -176 0
v -544 -176 0
v -320 -240 0
v -336 -240 0
v -336 -224 0
v -320 -224 0
v -48 -256 0
v -64 -256 0
v -64 -240 0
v -48 -240 0
v -96 -256 0
v -112 -256 0
v -112 -240 0
v -96 -240 0
v -128 -272 0
v -144 -272 0
v -144 -256 0
v -128 -256 0
v -128 -288 0
v -144 -288 0
v -144 -272 0
v -128 -272 0

# Texture cooridinates (Count = 18)
vt 0.3333333 0.3333333
vt 0.6666667 0.3333333
vt 0.6666667 0.5
vt 0.3333333 0.5
vt 0.3333333 0
vt 0.6666667 0
vt 0.6666667 0.1666667
vt 0.3333333 0.1666667
vt 0 0
vt 0 0.1666667
vt 0 0.6666666
vt 0.3333333 0.6666666
vt 0.3333333 0.8333333
vt 0 0.8333333
vt 0.3333333 1
vt 0 1
vt 1 0
vt 1 0.1666667

# Normal
vn 0 0 -1

# Mesh description
g Oasis_mesh_0006

# Faces
f 1/1/1 2/2/1 3/3/1 4/4/1
f 5/5/1 6/6/1 7/7/1 8/8/1
f 9/9/1 10/5/1 11/8/1 12/10/1
f 13/1/1 14/2/1 15/3/1 16/4/1
f 17/5/1 18/6/1 19/7/1 20/8/1
f 21/11/1 22/12/1 23/13/1 24/14/1
f 25/14/1 26/13/1 27/15/1 28/16/1
f 29/1/1 30/2/1 31/3/1 32/4/1
f 33/5/1 34/6/1 35/7/1 36/8/1
f 37/11/1 38/12/1 39/13/1 40/14/1
f 41/11/1 42/12/1 43/13/1 44/14/1
f 45/1/1 46/2/1 47/3/1 48/4/1
f 49/6/1 50/17/1 51/18/1 52/7/1
f 53/5/1 54/6/1 55/7/1 56/8/1
f 57/11/1 58/12/1 59/13/1 60/14/1
f 61/14/1 62/13/1 63/15/1 64/16/1
f 65/1/1 66/2/1 67/3/1 68/4/1
f 69/5/1 70/6/1 71/7/1 72/8/1
f 73/1/1 74/2/1 75/3/1 76/4/1
f 77/5/1 78/6/1 79/7/1 80/8/1
f 81/14/1 82/13/1 83/15/1 84/16/1
f 85/1/1 86/2/1 87/3/1 88/4/1
f 89/11/1 90/12/1 91/13/1 92/14/1
f 93/14/1 94/13/1 95/15/1 96/16/1
f 97/11/1 98/12/1 99/13/1 100/14/1
f 101/14/1 102/13/1 103/15/1 104/16/1
f 105/1/1 106/2/1 107/3/1 108/4/1
f 109/14/1 110/13/1 111/15/1 112/16/1
f 113/9/1 114/5/1 115/8/1 116/10/1
f 117/1/1 118/2/1 119/3/1 120/4/1
f 121/11/1 122/12/1 123/13/1 124/14/1
f 125/11/1 126/12/1 127/13/1 128/14/1
f 129/1/1 130/2/1 131/3/1 132/4/1
f 133/11/1 134/12/1 135/13/1 136/14/1
f 137/1/1 138/2/1 139/3/1 140/4/1
f 141/11/1 142/12/1 143/13/1 144/14/1
f 145/5/1 146/6/1 147/7/1 148/8/1
f 149/11/1 150/12/1 151/13/1 152/14/1
f 153/9/1 154/5/1 155/8/1 156/10/1
f 157/1/1 158/2/1 159/3/1 160/4/1
f 161/14/1 162/13/1 163/15/1 164/16/1
f 165/14/1 166/13/1 167/15/1 168/16/1
f 169/9/1 170/5/1 171/8/1 172/10/1
f 173/9/1 174/5/1 175/8/1 176/10/1
f 177/9/1 178/5/1 179/8/1 180/10/1
f 181/14/1 182/13/1 183/15/1 184/16/1
f 185/9/1 186/5/1 187/8/1 188/10/1
f 189/11/1 190/12/1 191/13/1 192/14/1
f 193/11/1 194/12/1 195/13/1 196/14/1

