# Tiled2Unity generated file. Do not modify by hand.
# Wavefront file for 'Oasis_mesh_0023.obj'

# Vertices (Count = 12)
v -592 -64 0
v -608 -64 0
v -608 -48 0
v -592 -48 0
v -592 -128 0
v -608 -128 0
v -608 -112 0
v -592 -112 0
v -96 -400 0
v -112 -400 0
v -112 -384 0
v -96 -384 0

# Texture cooridinates (Count = 8)
vt 0.2 0
vt 0.3 0
vt 0.3 0.1
vt 0.2 0.1
vt 0.4 0.1
vt 0.4 0.2
vt 0.3 0.2
vt 0.2 0.2

# Normal
vn 0 0 -1

# Mesh description
g Oasis_mesh_0023

# Faces
f 1/1/1 2/2/1 3/3/1 4/4/1
f 5/3/1 6/5/1 7/6/1 8/7/1
f 9/4/1 10/3/1 11/7/1 12/8/1

