# Tiled2Unity generated file. Do not modify by hand.
# Wavefront file for 'Oasis_mesh_0004.obj'

# Vertices (Count = 252)
v -12.8 -1.28 0
v -13.12 -1.28 0
v -13.12 -0.96 0
v -12.8 -0.96 0
v -13.12 -1.28 0
v -13.44 -1.28 0
v -13.44 -0.96 0
v -13.12 -0.96 0
v -13.76 -1.92 0
v -14.08 -1.92 0
v -14.08 -1.6 0
v -13.76 -1.6 0
v -18.56 -1.92 0
v -18.88 -1.92 0
v -18.88 -1.6 0
v -18.56 -1.6 0
v -12.8 -2.56 0
v -13.12 -2.56 0
v -13.12 -2.24 0
v -12.8 -2.24 0
v -18.24 -3.2 0
v -18.56 -3.2 0
v -18.56 -2.88 0
v -18.24 -2.88 0
v -12.16 -4.48 0
v -12.48 -4.48 0
v -12.48 -4.16 0
v -12.16 -4.16 0
v -18.56 -4.48 0
v -18.88 -4.48 0
v -18.88 -4.16 0
v -18.56 -4.16 0
v -12.16 -4.8 0
v -12.48 -4.8 0
v -12.48 -4.48 0
v -12.16 -4.48 0
v -12.48 -4.8 0
v -12.8 -4.8 0
v -12.8 -4.48 0
v -12.48 -4.48 0
v -16 -4.8 0
v -16.32 -4.8 0
v -16.32 -4.48 0
v -16 -4.48 0
v -16 -5.12 0
v -16.32 -5.12 0
v -16.32 -4.8 0
v -16 -4.8 0
v -11.52 -6.08 0
v -11.84 -6.08 0
v -11.84 -5.76 0
v -11.52 -5.76 0
v -14.4 -6.08 0
v -14.72 -6.08 0
v -14.72 -5.76 0
v -14.4 -5.76 0
v -15.36 -6.08 0
v -15.68 -6.08 0
v -15.68 -5.76 0
v -15.36 -5.76 0
v -15.68 -6.08 0
v -16 -6.08 0
v -16 -5.76 0
v -15.68 -5.76 0
v -15.68 -6.4 0
v -16 -6.4 0
v -16 -6.08 0
v -15.68 -6.08 0
v -16.32 -6.4 0
v -16.64 -6.4 0
v -16.64 -6.08 0
v -16.32 -6.08 0
v -8.96 -6.72 0
v -9.28 -6.72 0
v -9.28 -6.4 0
v -8.96 -6.4 0
v -9.92 -6.72 0
v -10.24 -6.72 0
v -10.24 -6.4 0
v -9.92 -6.4 0
v -8 -7.04 0
v -8.32 -7.04 0
v -8.32 -6.72 0
v -8 -6.72 0
v -5.44 -7.36 0
v -5.76 -7.36 0
v -5.76 -7.04 0
v -5.44 -7.04 0
v -8.96 -7.36 0
v -9.28 -7.36 0
v -9.28 -7.04 0
v -8.96 -7.04 0
v -18.24 -7.36 0
v -18.56 -7.36 0
v -18.56 -7.04 0
v -18.24 -7.04 0
v -5.44 -7.68 0
v -5.76 -7.68 0
v -5.76 -7.36 0
v -5.44 -7.36 0
v -9.92 -7.68 0
v -10.24 -7.68 0
v -10.24 -7.36 0
v -9.92 -7.36 0
v -16.64 -8 0
v -16.96 -8 0
v -16.96 -7.68 0
v -16.64 -7.68 0
v -17.28 -8.639999 0
v -17.6 -8.639999 0
v -17.6 -8.32 0
v -17.28 -8.32 0
v -0.64 -8.96 0
v -0.96 -8.96 0
v -0.96 -8.639999 0
v -0.64 -8.639999 0
v -2.56 -9.599999 0
v -2.88 -9.599999 0
v -2.88 -9.28 0
v -2.56 -9.28 0
v -19.84 -10.24 0
v -20.16 -10.24 0
v -20.16 -9.92 0
v -19.84 -9.92 0
v -0.96 -10.88 0
v -1.28 -10.88 0
v -1.28 -10.56 0
v -0.96 -10.56 0
v -2.88 -10.88 0
v -3.2 -10.88 0
v -3.2 -10.56 0
v -2.88 -10.56 0
v -4.8 -10.88 0
v -5.12 -10.88 0
v -5.12 -10.56 0
v -4.8 -10.56 0
v -5.44 -10.88 0
v -5.76 -10.88 0
v -5.76 -10.56 0
v -5.44 -10.56 0
v -6.08 -10.88 0
v -6.4 -10.88 0
v -6.4 -10.56 0
v -6.08 -10.56 0
v -8.32 -10.88 0
v -8.639999 -10.88 0
v -8.639999 -10.56 0
v -8.32 -10.56 0
v -3.84 -11.2 0
v -4.16 -11.2 0
v -4.16 -10.88 0
v -3.84 -10.88 0
v -17.92 -11.2 0
v -18.24 -11.2 0
v -18.24 -10.88 0
v -17.92 -10.88 0
v -17.28 -11.52 0
v -17.6 -11.52 0
v -17.6 -11.2 0
v -17.28 -11.2 0
v -4.48 -11.84 0
v -4.8 -11.84 0
v -4.8 -11.52 0
v -4.48 -11.52 0
v -9.599999 -11.84 0
v -9.92 -11.84 0
v -9.92 -11.52 0
v -9.599999 -11.52 0
v -10.24 -12.48 0
v -10.56 -12.48 0
v -10.56 -12.16 0
v -10.24 -12.16 0
v -17.6 -12.48 0
v -17.92 -12.48 0
v -17.92 -12.16 0
v -17.6 -12.16 0
v -16 -12.8 0
v -16.32 -12.8 0
v -16.32 -12.48 0
v -16 -12.48 0
v -18.88 -12.8 0
v -19.2 -12.8 0
v -19.2 -12.48 0
v -18.88 -12.48 0
v -19.52 -12.8 0
v -19.84 -12.8 0
v -19.84 -12.48 0
v -19.52 -12.48 0
v -17.28 -13.12 0
v -17.6 -13.12 0
v -17.6 -12.8 0
v -17.28 -12.8 0
v -12.16 -13.44 0
v -12.48 -13.44 0
v -12.48 -13.12 0
v -12.16 -13.12 0
v -16.32 -13.44 0
v -16.64 -13.44 0
v -16.64 -13.12 0
v -16.32 -13.12 0
v -17.6 -13.76 0
v -17.92 -13.76 0
v -17.92 -13.44 0
v -17.6 -13.44 0
v -19.2 -13.76 0
v -19.52 -13.76 0
v -19.52 -13.44 0
v -19.2 -13.44 0
v -11.2 -14.08 0
v -11.52 -14.08 0
v -11.52 -13.76 0
v -11.2 -13.76 0
v -12.48 -14.08 0
v -12.8 -14.08 0
v -12.8 -13.76 0
v -12.48 -13.76 0
v -18.56 -14.08 0
v -18.88 -14.08 0
v -18.88 -13.76 0
v -18.56 -13.76 0
v -21.12 -14.08 0
v -21.44 -14.08 0
v -21.44 -13.76 0
v -21.12 -13.76 0
v -21.76 -14.4 0
v -22.08 -14.4 0
v -22.08 -14.08 0
v -21.76 -14.08 0
v -21.44 -14.72 0
v -21.76 -14.72 0
v -21.76 -14.4 0
v -21.44 -14.4 0
v -11.52 -15.04 0
v -11.84 -15.04 0
v -11.84 -14.72 0
v -11.52 -14.72 0
v -12.16 -15.04 0
v -12.48 -15.04 0
v -12.48 -14.72 0
v -12.16 -14.72 0
v -12.8 -15.68 0
v -13.12 -15.68 0
v -13.12 -15.36 0
v -12.8 -15.36 0
v -22.08 -15.68 0
v -22.4 -15.68 0
v -22.4 -15.36 0
v -22.08 -15.36 0
v -15.68 -16 0
v -16 -16 0
v -16 -15.68 0
v -15.68 -15.68 0

# Texture cooridinates (Count = 8)
vt 0.3333333 0
vt 0.6666667 0
vt 0.6666667 0.1666667
vt 0.3333333 0.1666667
vt 1 0
vt 1 0.1666667
vt 0 0
vt 0 0.1666667

# Normal
vn 0 0 -1

# Mesh description
g Oasis_mesh_0004

# Faces
f 1/1/1 2/2/1 3/3/1 4/4/1
f 5/1/1 6/2/1 7/3/1 8/4/1
f 9/1/1 10/2/1 11/3/1 12/4/1
f 13/1/1 14/2/1 15/3/1 16/4/1
f 17/1/1 18/2/1 19/3/1 20/4/1
f 21/1/1 22/2/1 23/3/1 24/4/1
f 25/2/1 26/5/1 27/6/1 28/3/1
f 29/1/1 30/2/1 31/3/1 32/4/1
f 33/1/1 34/2/1 35/3/1 36/4/1
f 37/1/1 38/2/1 39/3/1 40/4/1
f 41/1/1 42/2/1 43/3/1 44/4/1
f 45/1/1 46/2/1 47/3/1 48/4/1
f 49/2/1 50/5/1 51/6/1 52/3/1
f 53/2/1 54/5/1 55/6/1 56/3/1
f 57/1/1 58/2/1 59/3/1 60/4/1
f 61/1/1 62/2/1 63/3/1 64/4/1
f 65/7/1 66/1/1 67/4/1 68/8/1
f 69/2/1 70/5/1 71/6/1 72/3/1
f 73/1/1 74/2/1 75/3/1 76/4/1
f 77/1/1 78/2/1 79/3/1 80/4/1
f 81/2/1 82/5/1 83/6/1 84/3/1
f 85/2/1 86/5/1 87/6/1 88/3/1
f 89/1/1 90/2/1 91/3/1 92/4/1
f 93/2/1 94/5/1 95/6/1 96/3/1
f 97/2/1 98/5/1 99/6/1 100/3/1
f 101/7/1 102/1/1 103/4/1 104/8/1
f 105/1/1 106/2/1 107/3/1 108/4/1
f 109/2/1 110/5/1 111/6/1 112/3/1
f 113/1/1 114/2/1 115/3/1 116/4/1
f 117/1/1 118/2/1 119/3/1 120/4/1
f 121/1/1 122/2/1 123/3/1 124/4/1
f 125/1/1 126/2/1 127/3/1 128/4/1
f 129/1/1 130/2/1 131/3/1 132/4/1
f 133/2/1 134/5/1 135/6/1 136/3/1
f 137/1/1 138/2/1 139/3/1 140/4/1
f 141/2/1 142/5/1 143/6/1 144/3/1
f 145/1/1 146/2/1 147/3/1 148/4/1
f 149/1/1 150/2/1 151/3/1 152/4/1
f 153/2/1 154/5/1 155/6/1 156/3/1
f 157/1/1 158/2/1 159/3/1 160/4/1
f 161/1/1 162/2/1 163/3/1 164/4/1
f 165/1/1 166/2/1 167/3/1 168/4/1
f 169/2/1 170/5/1 171/6/1 172/3/1
f 173/1/1 174/2/1 175/3/1 176/4/1
f 177/1/1 178/2/1 179/3/1 180/4/1
f 181/1/1 182/2/1 183/3/1 184/4/1
f 185/2/1 186/5/1 187/6/1 188/3/1
f 189/1/1 190/2/1 191/3/1 192/4/1
f 193/1/1 194/2/1 195/3/1 196/4/1
f 197/1/1 198/2/1 199/3/1 200/4/1
f 201/1/1 202/2/1 203/3/1 204/4/1
f 205/1/1 206/2/1 207/3/1 208/4/1
f 209/2/1 210/5/1 211/6/1 212/3/1
f 213/1/1 214/2/1 215/3/1 216/4/1
f 217/1/1 218/2/1 219/3/1 220/4/1
f 221/2/1 222/5/1 223/6/1 224/3/1
f 225/2/1 226/5/1 227/6/1 228/3/1
f 229/1/1 230/2/1 231/3/1 232/4/1
f 233/7/1 234/1/1 235/4/1 236/8/1
f 237/1/1 238/2/1 239/3/1 240/4/1
f 241/1/1 242/2/1 243/3/1 244/4/1
f 245/2/1 246/5/1 247/6/1 248/3/1
f 249/1/1 250/2/1 251/3/1 252/4/1

