# Tiled2Unity generated file. Do not modify by hand.
# Wavefront file for 'Oasis_mesh_0018.obj'

# Vertices (Count = 200)
v 0 -16 0
v -16 -16 0
v -16 0 0
v 0 0 0
v -16 -16 0
v -32 -16 0
v -32 0 0
v -16 0 0
v -128 -16 0
v -144 -16 0
v -144 0 0
v -128 0 0
v -144 -16 0
v -160 -16 0
v -160 0 0
v -144 0 0
v -160 -16 0
v -176 -16 0
v -176 0 0
v -160 0 0
v -224 -16 0
v -240 -16 0
v -240 0 0
v -224 0 0
v -240 -16 0
v -256 -16 0
v -256 0 0
v -240 0 0
v -256 -16 0
v -272 -16 0
v -272 0 0
v -256 0 0
v -320 -16 0
v -336 -16 0
v -336 0 0
v -320 0 0
v -336 -16 0
v -352 -16 0
v -352 0 0
v -336 0 0
v -352 -16 0
v -368 -16 0
v -368 0 0
v -352 0 0
v -416 -16 0
v -432 -16 0
v -432 0 0
v -416 0 0
v -432 -16 0
v -448 -16 0
v -448 0 0
v -432 0 0
v -448 -16 0
v -464 -16 0
v -464 0 0
v -448 0 0
v -128 -32 0
v -144 -32 0
v -144 -16 0
v -128 -16 0
v -144 -32 0
v -160 -32 0
v -160 -16 0
v -144 -16 0
v -160 -32 0
v -176 -32 0
v -176 -16 0
v -160 -16 0
v -224 -32 0
v -240 -32 0
v -240 -16 0
v -224 -16 0
v -240 -32 0
v -256 -32 0
v -256 -16 0
v -240 -16 0
v -256 -32 0
v -272 -32 0
v -272 -16 0
v -256 -16 0
v -320 -32 0
v -336 -32 0
v -336 -16 0
v -320 -16 0
v -336 -32 0
v -352 -32 0
v -352 -16 0
v -336 -16 0
v -352 -32 0
v -368 -32 0
v -368 -16 0
v -352 -16 0
v -416 -32 0
v -432 -32 0
v -432 -16 0
v -416 -16 0
v -432 -32 0
v -448 -32 0
v -448 -16 0
v -432 -16 0
v -448 -32 0
v -464 -32 0
v -464 -16 0
v -448 -16 0
v -128 -48 0
v -144 -48 0
v -144 -32 0
v -128 -32 0
v -144 -48 0
v -160 -48 0
v -160 -32 0
v -144 -32 0
v -160 -48 0
v -176 -48 0
v -176 -32 0
v -160 -32 0
v -224 -48 0
v -240 -48 0
v -240 -32 0
v -224 -32 0
v -240 -48 0
v -256 -48 0
v -256 -32 0
v -240 -32 0
v -256 -48 0
v -272 -48 0
v -272 -32 0
v -256 -32 0
v -320 -48 0
v -336 -48 0
v -336 -32 0
v -320 -32 0
v -336 -48 0
v -352 -48 0
v -352 -32 0
v -336 -32 0
v -352 -48 0
v -368 -48 0
v -368 -32 0
v -352 -32 0
v -416 -48 0
v -432 -48 0
v -432 -32 0
v -416 -32 0
v -432 -48 0
v -448 -48 0
v -448 -32 0
v -432 -32 0
v -448 -48 0
v -464 -48 0
v -464 -32 0
v -448 -32 0
v -128 -64 0
v -144 -64 0
v -144 -48 0
v -128 -48 0
v -144 -64 0
v -160 -64 0
v -160 -48 0
v -144 -48 0
v -160 -64 0
v -176 -64 0
v -176 -48 0
v -160 -48 0
v -224 -64 0
v -240 -64 0
v -240 -48 0
v -224 -48 0
v -240 -64 0
v -256 -64 0
v -256 -48 0
v -240 -48 0
v -256 -64 0
v -272 -64 0
v -272 -48 0
v -256 -48 0
v -320 -64 0
v -336 -64 0
v -336 -48 0
v -320 -48 0
v -336 -64 0
v -352 -64 0
v -352 -48 0
v -336 -48 0
v -352 -64 0
v -368 -64 0
v -368 -48 0
v -352 -48 0
v -416 -64 0
v -432 -64 0
v -432 -48 0
v -416 -48 0
v -432 -64 0
v -448 -64 0
v -448 -48 0
v -432 -48 0
v -448 -64 0
v -464 -64 0
v -464 -48 0
v -448 -48 0

# Texture cooridinates (Count = 20)
vt 0.08333334 0.4444444
vt 0.1666667 0.4444444
vt 0.1666667 0.5555556
vt 0.08333334 0.5555556
vt 0 0.7777778
vt 0.08333334 0.7777778
vt 0.08333334 0.8888889
vt 0 0.8888889
vt 0.1666667 0.7777778
vt 0.1666667 0.8888889
vt 0.25 0.7777778
vt 0.25 0.8888889
vt 0 0.6666666
vt 0.08333334 0.6666666
vt 0.1666667 0.6666666
vt 0.25 0.6666666
vt 0 0.5555556
vt 0.25 0.5555556
vt 0 0.4444444
vt 0.25 0.4444444

# Normal
vn 0 0 -1

# Mesh description
g Oasis_mesh_0018

# Faces
f 1/1/1 2/2/1 3/3/1 4/4/1
f 5/1/1 6/2/1 7/3/1 8/4/1
f 9/5/1 10/6/1 11/7/1 12/8/1
f 13/6/1 14/9/1 15/10/1 16/7/1
f 17/9/1 18/11/1 19/12/1 20/10/1
f 21/5/1 22/6/1 23/7/1 24/8/1
f 25/6/1 26/9/1 27/10/1 28/7/1
f 29/9/1 30/11/1 31/12/1 32/10/1
f 33/5/1 34/6/1 35/7/1 36/8/1
f 37/6/1 38/9/1 39/10/1 40/7/1
f 41/9/1 42/11/1 43/12/1 44/10/1
f 45/5/1 46/6/1 47/7/1 48/8/1
f 49/6/1 50/9/1 51/10/1 52/7/1
f 53/9/1 54/11/1 55/12/1 56/10/1
f 57/13/1 58/14/1 59/6/1 60/5/1
f 61/14/1 62/15/1 63/9/1 64/6/1
f 65/15/1 66/16/1 67/11/1 68/9/1
f 69/13/1 70/14/1 71/6/1 72/5/1
f 73/14/1 74/15/1 75/9/1 76/6/1
f 77/15/1 78/16/1 79/11/1 80/9/1
f 81/13/1 82/14/1 83/6/1 84/5/1
f 85/14/1 86/15/1 87/9/1 88/6/1
f 89/15/1 90/16/1 91/11/1 92/9/1
f 93/13/1 94/14/1 95/6/1 96/5/1
f 97/14/1 98/15/1 99/9/1 100/6/1
f 101/15/1 102/16/1 103/11/1 104/9/1
f 105/17/1 106/4/1 107/14/1 108/13/1
f 109/4/1 110/3/1 111/15/1 112/14/1
f 113/3/1 114/18/1 115/16/1 116/15/1
f 117/17/1 118/4/1 119/14/1 120/13/1
f 121/4/1 122/3/1 123/15/1 124/14/1
f 125/3/1 126/18/1 127/16/1 128/15/1
f 129/17/1 130/4/1 131/14/1 132/13/1
f 133/4/1 134/3/1 135/15/1 136/14/1
f 137/3/1 138/18/1 139/16/1 140/15/1
f 141/17/1 142/4/1 143/14/1 144/13/1
f 145/4/1 146/3/1 147/15/1 148/14/1
f 149/3/1 150/18/1 151/16/1 152/15/1
f 153/19/1 154/1/1 155/4/1 156/17/1
f 157/1/1 158/2/1 159/3/1 160/4/1
f 161/2/1 162/20/1 163/18/1 164/3/1
f 165/19/1 166/1/1 167/4/1 168/17/1
f 169/1/1 170/2/1 171/3/1 172/4/1
f 173/2/1 174/20/1 175/18/1 176/3/1
f 177/19/1 178/1/1 179/4/1 180/17/1
f 181/1/1 182/2/1 183/3/1 184/4/1
f 185/2/1 186/20/1 187/18/1 188/3/1
f 189/19/1 190/1/1 191/4/1 192/17/1
f 193/1/1 194/2/1 195/3/1 196/4/1
f 197/2/1 198/20/1 199/18/1 200/3/1

