# Tiled2Unity generated file. Do not modify by hand.
# Wavefront file for 'Oasis_mesh_0027.obj'

# Vertices (Count = 100)
v -8 -7.68 0
v -8.32 -7.68 0
v -8.32 -7.36 0
v -8 -7.36 0
v -8.32 -7.68 0
v -8.639999 -7.68 0
v -8.639999 -7.36 0
v -8.32 -7.36 0
v -8 -8 0
v -8.32 -8 0
v -8.32 -7.68 0
v -8 -7.68 0
v -8.32 -8 0
v -8.639999 -8 0
v -8.639999 -7.68 0
v -8.32 -7.68 0
v -3.84 -12.16 0
v -4.16 -12.16 0
v -4.16 -11.84 0
v -3.84 -11.84 0
v -6.4 -12.16 0
v -6.72 -12.16 0
v -6.72 -11.84 0
v -6.4 -11.84 0
v -6.72 -12.16 0
v -7.04 -12.16 0
v -7.04 -11.84 0
v -6.72 -11.84 0
v -6.4 -12.48 0
v -6.72 -12.48 0
v -6.72 -12.16 0
v -6.4 -12.16 0
v -6.72 -12.48 0
v -7.04 -12.48 0
v -7.04 -12.16 0
v -6.72 -12.16 0
v -12.48 -12.48 0
v -12.8 -12.48 0
v -12.8 -12.16 0
v -12.48 -12.16 0
v -12.8 -12.48 0
v -13.12 -12.48 0
v -13.12 -12.16 0
v -12.8 -12.16 0
v -7.36 -12.8 0
v -7.68 -12.8 0
v -7.68 -12.48 0
v -7.36 -12.48 0
v -7.68 -12.8 0
v -8 -12.8 0
v -8 -12.48 0
v -7.68 -12.48 0
v -12.48 -12.8 0
v -12.8 -12.8 0
v -12.8 -12.48 0
v -12.48 -12.48 0
v -12.8 -12.8 0
v -13.12 -12.8 0
v -13.12 -12.48 0
v -12.8 -12.48 0
v -6.08 -13.12 0
v -6.4 -13.12 0
v -6.4 -12.8 0
v -6.08 -12.8 0
v -7.36 -13.12 0
v -7.68 -13.12 0
v -7.68 -12.8 0
v -7.36 -12.8 0
v -7.68 -13.12 0
v -8 -13.12 0
v -8 -12.8 0
v -7.68 -12.8 0
v -6.72 -13.44 0
v -7.04 -13.44 0
v -7.04 -13.12 0
v -6.72 -13.12 0
v -7.04 -13.44 0
v -7.36 -13.44 0
v -7.36 -13.12 0
v -7.04 -13.12 0
v -6.72 -13.76 0
v -7.04 -13.76 0
v -7.04 -13.44 0
v -6.72 -13.44 0
v -7.04 -13.76 0
v -7.36 -13.76 0
v -7.36 -13.44 0
v -7.04 -13.44 0
v -8 -13.76 0
v -8.32 -13.76 0
v -8.32 -13.44 0
v -8 -13.44 0
v -8 -14.4 0
v -8.32 -14.4 0
v -8.32 -14.08 0
v -8 -14.08 0
v -7.04 -15.04 0
v -7.36 -15.04 0
v -7.36 -14.72 0
v -7.04 -14.72 0

# Texture cooridinates (Count = 13)
vt 0.875 0.8125
vt 0.9375 0.8125
vt 0.9375 0.875
vt 0.875 0.875
vt 1 0.8125
vt 1 0.875
vt 0.875 0.75
vt 0.9375 0.75
vt 1 0.75
vt 0.75 0.75
vt 0.8125 0.75
vt 0.8125 0.8125
vt 0.75 0.8125

# Normal
vn 0 0 -1

# Mesh description
g Oasis_mesh_0027

# Faces
f 1/1/1 2/2/1 3/3/1 4/4/1
f 5/2/1 6/5/1 7/6/1 8/3/1
f 9/7/1 10/8/1 11/2/1 12/1/1
f 13/8/1 14/9/1 15/5/1 16/2/1
f 17/10/1 18/11/1 19/12/1 20/13/1
f 21/1/1 22/2/1 23/3/1 24/4/1
f 25/2/1 26/5/1 27/6/1 28/3/1
f 29/7/1 30/8/1 31/2/1 32/1/1
f 33/8/1 34/9/1 35/5/1 36/2/1
f 37/1/1 38/2/1 39/3/1 40/4/1
f 41/2/1 42/5/1 43/6/1 44/3/1
f 45/1/1 46/2/1 47/3/1 48/4/1
f 49/2/1 50/5/1 51/6/1 52/3/1
f 53/7/1 54/8/1 55/2/1 56/1/1
f 57/8/1 58/9/1 59/5/1 60/2/1
f 61/10/1 62/11/1 63/12/1 64/13/1
f 65/7/1 66/8/1 67/2/1 68/1/1
f 69/8/1 70/9/1 71/5/1 72/2/1
f 73/1/1 74/2/1 75/3/1 76/4/1
f 77/2/1 78/5/1 79/6/1 80/3/1
f 81/7/1 82/8/1 83/2/1 84/1/1
f 85/8/1 86/9/1 87/5/1 88/2/1
f 89/10/1 90/11/1 91/12/1 92/13/1
f 93/10/1 94/11/1 95/12/1 96/13/1
f 97/10/1 98/11/1 99/12/1 100/13/1

