# Tiled2Unity generated file. Do not modify by hand.
# Wavefront file for 'Oasis_mesh_0010.obj'

# Vertices (Count = 12)
v -512 -32 0
v -528 -32 0
v -528 -16 0
v -512 -16 0
v -480 -144 0
v -496 -144 0
v -496 -128 0
v -480 -128 0
v -464 -160 0
v -480 -160 0
v -480 -144 0
v -464 -144 0

# Texture cooridinates (Count = 4)
vt 0 0.5
vt 0.3333333 0.5
vt 0.3333333 1
vt 0 1

# Normal
vn 0 0 -1

# Mesh description
g Oasis_mesh_0010

# Faces
f 1/1/1 2/2/1 3/3/1 4/4/1
f 5/1/1 6/2/1 7/3/1 8/4/1
f 9/1/1 10/2/1 11/3/1 12/4/1

