# Tiled2Unity generated file. Do not modify by hand.
# Wavefront file for 'Oasis_mesh_0028.obj'

# Vertices (Count = 48)
v -272 -608 0
v -288 -608 0
v -288 -592 0
v -272 -592 0
v -288 -608 0
v -304 -608 0
v -304 -592 0
v -288 -592 0
v -272 -624 0
v -288 -624 0
v -288 -608 0
v -272 -608 0
v -288 -624 0
v -304 -624 0
v -304 -608 0
v -288 -608 0
v -272 -640 0
v -288 -640 0
v -288 -624 0
v -272 -624 0
v -288 -640 0
v -304 -640 0
v -304 -624 0
v -288 -624 0
v -304 -688 0
v -320 -688 0
v -320 -672 0
v -304 -672 0
v -320 -688 0
v -336 -688 0
v -336 -672 0
v -320 -672 0
v -304 -704 0
v -320 -704 0
v -320 -688 0
v -304 -688 0
v -320 -704 0
v -336 -704 0
v -336 -688 0
v -320 -688 0
v -304 -720 0
v -320 -720 0
v -320 -704 0
v -304 -704 0
v -320 -720 0
v -336 -720 0
v -336 -704 0
v -320 -704 0

# Texture cooridinates (Count = 12)
vt 0.8461539 0.375
vt 0.9230769 0.375
vt 0.9230769 0.5
vt 0.8461539 0.5
vt 1 0.375
vt 1 0.5
vt 0.8461539 0.25
vt 0.9230769 0.25
vt 1 0.25
vt 0.8461539 0.125
vt 0.9230769 0.125
vt 1 0.125

# Normal
vn 0 0 -1

# Mesh description
g Oasis_mesh_0028

# Faces
f 1/1/1 2/2/1 3/3/1 4/4/1
f 5/2/1 6/5/1 7/6/1 8/3/1
f 9/7/1 10/8/1 11/2/1 12/1/1
f 13/8/1 14/9/1 15/5/1 16/2/1
f 17/10/1 18/11/1 19/8/1 20/7/1
f 21/11/1 22/12/1 23/9/1 24/8/1
f 25/1/1 26/2/1 27/3/1 28/4/1
f 29/2/1 30/5/1 31/6/1 32/3/1
f 33/7/1 34/8/1 35/2/1 36/1/1
f 37/8/1 38/9/1 39/5/1 40/2/1
f 41/10/1 42/11/1 43/8/1 44/7/1
f 45/11/1 46/12/1 47/9/1 48/8/1

