# Tiled2Unity generated file. Do not modify by hand.
# Wavefront file for 'Oasis_mesh_0012.obj'

# Vertices (Count = 16)
v -1.28 -8.32 0
v -1.6 -8.32 0
v -1.6 -8 0
v -1.28 -8 0
v -0.96 -8.639999 0
v -1.28 -8.639999 0
v -1.28 -8.32 0
v -0.96 -8.32 0
v -19.84 -13.44 0
v -20.16 -13.44 0
v -20.16 -13.12 0
v -19.84 -13.12 0
v -13.12 -16 0
v -13.44 -16 0
v -13.44 -15.68 0
v -13.12 -15.68 0

# Texture cooridinates (Count = 6)
vt 0.34375 0.75
vt 0.375 0.75
vt 0.375 0.78125
vt 0.34375 0.78125
vt 0.3125 0.75
vt 0.3125 0.78125

# Normal
vn 0 0 -1

# Mesh description
g Oasis_mesh_0012

# Faces
f 1/1/1 2/2/1 3/3/1 4/4/1
f 5/1/1 6/2/1 7/3/1 8/4/1
f 9/5/1 10/1/1 11/4/1 12/6/1
f 13/1/1 14/2/1 15/3/1 16/4/1

