# Tiled2Unity generated file. Do not modify by hand.
# Wavefront file for 'Oasis_mesh_0006.obj'

# Vertices (Count = 196)
v 0 -0.32 0
v -0.32 -0.32 0
v -0.32 0 0
v 0 0 0
v -2.24 -0.32 0
v -2.56 -0.32 0
v -2.56 0 0
v -2.24 0 0
v -9.28 -0.32 0
v -9.599999 -0.32 0
v -9.599999 0 0
v -9.28 0 0
v 0 -0.64 0
v -0.32 -0.64 0
v -0.32 -0.32 0
v 0 -0.32 0
v -0.32 -0.64 0
v -0.64 -0.64 0
v -0.64 -0.32 0
v -0.32 -0.32 0
v -3.2 -0.64 0
v -3.52 -0.64 0
v -3.52 -0.32 0
v -3.2 -0.32 0
v -10.24 -0.64 0
v -10.56 -0.64 0
v -10.56 -0.32 0
v -10.24 -0.32 0
v 0 -0.96 0
v -0.32 -0.96 0
v -0.32 -0.64 0
v 0 -0.64 0
v -0.64 -0.96 0
v -0.96 -0.96 0
v -0.96 -0.64 0
v -0.64 -0.64 0
v -2.24 -0.96 0
v -2.56 -0.96 0
v -2.56 -0.64 0
v -2.24 -0.64 0
v -7.68 -0.96 0
v -8 -0.96 0
v -8 -0.64 0
v -7.68 -0.64 0
v 0 -1.28 0
v -0.32 -1.28 0
v -0.32 -0.96 0
v 0 -0.96 0
v -0.64 -1.28 0
v -0.96 -1.28 0
v -0.96 -0.96 0
v -0.64 -0.96 0
v -2.56 -1.28 0
v -2.88 -1.28 0
v -2.88 -0.96 0
v -2.56 -0.96 0
v -5.76 -1.28 0
v -6.08 -1.28 0
v -6.08 -0.96 0
v -5.76 -0.96 0
v -9.599999 -1.28 0
v -9.92 -1.28 0
v -9.92 -0.96 0
v -9.599999 -0.96 0
v 0 -1.6 0
v -0.32 -1.6 0
v -0.32 -1.28 0
v 0 -1.28 0
v -2.88 -1.6 0
v -3.2 -1.6 0
v -3.2 -1.28 0
v -2.88 -1.28 0
v 0 -1.92 0
v -0.32 -1.92 0
v -0.32 -1.6 0
v 0 -1.6 0
v -1.6 -1.92 0
v -1.92 -1.92 0
v -1.92 -1.6 0
v -1.6 -1.6 0
v -6.08 -1.92 0
v -6.4 -1.92 0
v -6.4 -1.6 0
v -6.08 -1.6 0
v 0 -2.24 0
v -0.32 -2.24 0
v -0.32 -1.92 0
v 0 -1.92 0
v -0.32 -2.24 0
v -0.64 -2.24 0
v -0.64 -1.92 0
v -0.32 -1.92 0
v -2.88 -2.24 0
v -3.2 -2.24 0
v -3.2 -1.92 0
v -2.88 -1.92 0
v -6.08 -2.24 0
v -6.4 -2.24 0
v -6.4 -1.92 0
v -6.08 -1.92 0
v -8.96 -2.24 0
v -9.28 -2.24 0
v -9.28 -1.92 0
v -8.96 -1.92 0
v 0 -2.56 0
v -0.32 -2.56 0
v -0.32 -2.24 0
v 0 -2.24 0
v -1.92 -2.56 0
v -2.24 -2.56 0
v -2.24 -2.24 0
v -1.92 -2.24 0
v -8 -2.56 0
v -8.32 -2.56 0
v -8.32 -2.24 0
v -8 -2.24 0
v 0 -2.88 0
v -0.32 -2.88 0
v -0.32 -2.56 0
v 0 -2.56 0
v -0.96 -2.88 0
v -1.28 -2.88 0
v -1.28 -2.56 0
v -0.96 -2.56 0
v -1.28 -2.88 0
v -1.6 -2.88 0
v -1.6 -2.56 0
v -1.28 -2.56 0
v 0 -3.2 0
v -0.32 -3.2 0
v -0.32 -2.88 0
v 0 -2.88 0
v -2.88 -3.2 0
v -3.2 -3.2 0
v -3.2 -2.88 0
v -2.88 -2.88 0
v 0 -3.52 0
v -0.32 -3.52 0
v -0.32 -3.2 0
v 0 -3.2 0
v -0.32 -3.52 0
v -0.64 -3.52 0
v -0.64 -3.2 0
v -0.32 -3.2 0
v -2.24 -3.52 0
v -2.56 -3.52 0
v -2.56 -3.2 0
v -2.24 -3.2 0
v -9.92 -3.52 0
v -10.24 -3.52 0
v -10.24 -3.2 0
v -9.92 -3.2 0
v -10.88 -3.52 0
v -11.2 -3.52 0
v -11.2 -3.2 0
v -10.88 -3.2 0
v 0 -3.84 0
v -0.32 -3.84 0
v -0.32 -3.52 0
v 0 -3.52 0
v -5.44 -3.84 0
v -5.76 -3.84 0
v -5.76 -3.52 0
v -5.44 -3.52 0
v -5.76 -3.84 0
v -6.08 -3.84 0
v -6.08 -3.52 0
v -5.76 -3.52 0
v -8.639999 -3.84 0
v -8.96 -3.84 0
v -8.96 -3.52 0
v -8.639999 -3.52 0
v -10.88 -3.84 0
v -11.2 -3.84 0
v -11.2 -3.52 0
v -10.88 -3.52 0
v -6.4 -4.8 0
v -6.72 -4.8 0
v -6.72 -4.48 0
v -6.4 -4.48 0
v -0.96 -5.12 0
v -1.28 -5.12 0
v -1.28 -4.8 0
v -0.96 -4.8 0
v -1.92 -5.12 0
v -2.24 -5.12 0
v -2.24 -4.8 0
v -1.92 -4.8 0
v -2.56 -5.44 0
v -2.88 -5.44 0
v -2.88 -5.12 0
v -2.56 -5.12 0
v -2.56 -5.76 0
v -2.88 -5.76 0
v -2.88 -5.44 0
v -2.56 -5.44 0

# Texture cooridinates (Count = 18)
vt 0.3333333 0.3333333
vt 0.6666667 0.3333333
vt 0.6666667 0.5
vt 0.3333333 0.5
vt 0.3333333 0
vt 0.6666667 0
vt 0.6666667 0.1666667
vt 0.3333333 0.1666667
vt 0 0
vt 0 0.1666667
vt 0 0.6666666
vt 0.3333333 0.6666666
vt 0.3333333 0.8333333
vt 0 0.8333333
vt 0.3333333 1
vt 0 1
vt 1 0
vt 1 0.1666667

# Normal
vn 0 0 -1

# Mesh description
g Oasis_mesh_0006

# Faces
f 1/1/1 2/2/1 3/3/1 4/4/1
f 5/5/1 6/6/1 7/7/1 8/8/1
f 9/9/1 10/5/1 11/8/1 12/10/1
f 13/1/1 14/2/1 15/3/1 16/4/1
f 17/5/1 18/6/1 19/7/1 20/8/1
f 21/11/1 22/12/1 23/13/1 24/14/1
f 25/14/1 26/13/1 27/15/1 28/16/1
f 29/1/1 30/2/1 31/3/1 32/4/1
f 33/5/1 34/6/1 35/7/1 36/8/1
f 37/11/1 38/12/1 39/13/1 40/14/1
f 41/11/1 42/12/1 43/13/1 44/14/1
f 45/1/1 46/2/1 47/3/1 48/4/1
f 49/6/1 50/17/1 51/18/1 52/7/1
f 53/5/1 54/6/1 55/7/1 56/8/1
f 57/11/1 58/12/1 59/13/1 60/14/1
f 61/14/1 62/13/1 63/15/1 64/16/1
f 65/1/1 66/2/1 67/3/1 68/4/1
f 69/5/1 70/6/1 71/7/1 72/8/1
f 73/1/1 74/2/1 75/3/1 76/4/1
f 77/5/1 78/6/1 79/7/1 80/8/1
f 81/14/1 82/13/1 83/15/1 84/16/1
f 85/1/1 86/2/1 87/3/1 88/4/1
f 89/11/1 90/12/1 91/13/1 92/14/1
f 93/14/1 94/13/1 95/15/1 96/16/1
f 97/11/1 98/12/1 99/13/1 100/14/1
f 101/14/1 102/13/1 103/15/1 104/16/1
f 105/1/1 106/2/1 107/3/1 108/4/1
f 109/14/1 110/13/1 111/15/1 112/16/1
f 113/9/1 114/5/1 115/8/1 116/10/1
f 117/1/1 118/2/1 119/3/1 120/4/1
f 121/11/1 122/12/1 123/13/1 124/14/1
f 125/11/1 126/12/1 127/13/1 128/14/1
f 129/1/1 130/2/1 131/3/1 132/4/1
f 133/11/1 134/12/1 135/13/1 136/14/1
f 137/1/1 138/2/1 139/3/1 140/4/1
f 141/11/1 142/12/1 143/13/1 144/14/1
f 145/5/1 146/6/1 147/7/1 148/8/1
f 149/11/1 150/12/1 151/13/1 152/14/1
f 153/9/1 154/5/1 155/8/1 156/10/1
f 157/1/1 158/2/1 159/3/1 160/4/1
f 161/14/1 162/13/1 163/15/1 164/16/1
f 165/14/1 166/13/1 167/15/1 168/16/1
f 169/9/1 170/5/1 171/8/1 172/10/1
f 173/9/1 174/5/1 175/8/1 176/10/1
f 177/9/1 178/5/1 179/8/1 180/10/1
f 181/14/1 182/13/1 183/15/1 184/16/1
f 185/9/1 186/5/1 187/8/1 188/10/1
f 189/11/1 190/12/1 191/13/1 192/14/1
f 193/11/1 194/12/1 195/13/1 196/14/1

