# Tiled2Unity generated file. Do not modify by hand.
# Wavefront file for 'Oasis_mesh_0012.obj'

# Vertices (Count = 16)
v -64 -416 0
v -80 -416 0
v -80 -400 0
v -64 -400 0
v -48 -432 0
v -64 -432 0
v -64 -416 0
v -48 -416 0
v -992 -672 0
v -1008 -672 0
v -1008 -656 0
v -992 -656 0
v -656 -800 0
v -672 -800 0
v -672 -784 0
v -656 -784 0

# Texture cooridinates (Count = 6)
vt 0.34375 0.75
vt 0.375 0.75
vt 0.375 0.78125
vt 0.34375 0.78125
vt 0.3125 0.75
vt 0.3125 0.78125

# Normal
vn 0 0 -1

# Mesh description
g Oasis_mesh_0012

# Faces
f 1/1/1 2/2/1 3/3/1 4/4/1
f 5/1/1 6/2/1 7/3/1 8/4/1
f 9/5/1 10/1/1 11/4/1 12/6/1
f 13/1/1 14/2/1 15/3/1 16/4/1

