# Tiled2Unity generated file. Do not modify by hand.
# Wavefront file for 'Oasis_mesh_0017.obj'

# Vertices (Count = 16)
v -13.12 -8.96 0
v -13.44 -8.96 0
v -13.44 -8.639999 0
v -13.12 -8.639999 0
v -13.44 -9.28 0
v -13.76 -9.28 0
v -13.76 -8.96 0
v -13.44 -8.96 0
v -13.12 -9.599999 0
v -13.44 -9.599999 0
v -13.44 -9.28 0
v -13.12 -9.28 0
v -13.44 -9.92 0
v -13.76 -9.92 0
v -13.76 -9.599999 0
v -13.44 -9.599999 0

# Texture cooridinates (Count = 8)
vt 0.3125 0.53125
vt 0.34375 0.53125
vt 0.34375 0.5625
vt 0.3125 0.5625
vt 0.375 0.53125
vt 0.375 0.5625
vt 0.28125 0.53125
vt 0.28125 0.5625

# Normal
vn 0 0 -1

# Mesh description
g Oasis_mesh_0017

# Faces
f 1/1/1 2/2/1 3/3/1 4/4/1
f 5/2/1 6/5/1 7/6/1 8/3/1
f 9/7/1 10/1/1 11/4/1 12/8/1
f 13/7/1 14/1/1 15/4/1 16/8/1

