# Tiled2Unity generated file. Do not modify by hand.
# Wavefront file for 'Oasis_mesh_0008.obj'

# Vertices (Count = 152)
v -464 -272 0
v -480 -272 0
v -480 -256 0
v -464 -256 0
v -640 -272 0
v -656 -272 0
v -656 -256 0
v -640 -256 0
v -736 -272 0
v -752 -272 0
v -752 -256 0
v -736 -256 0
v -432 -288 0
v -448 -288 0
v -448 -272 0
v -432 -272 0
v -448 -288 0
v -464 -288 0
v -464 -272 0
v -448 -272 0
v -640 -304 0
v -656 -304 0
v -656 -288 0
v -640 -288 0
v -400 -320 0
v -416 -320 0
v -416 -304 0
v -400 -304 0
v -528 -336 0
v -544 -336 0
v -544 -320 0
v -528 -320 0
v -736 -352 0
v -752 -352 0
v -752 -336 0
v -736 -336 0
v -832 -352 0
v -848 -352 0
v -848 -336 0
v -832 -336 0
v -736 -368 0
v -752 -368 0
v -752 -352 0
v -736 -352 0
v -864 -480 0
v -880 -480 0
v -880 -464 0
v -864 -464 0
v -400 -496 0
v -416 -496 0
v -416 -480 0
v -400 -480 0
v -80 -512 0
v -96 -512 0
v -96 -496 0
v -80 -496 0
v -464 -512 0
v -480 -512 0
v -480 -496 0
v -464 -496 0
v -752 -512 0
v -768 -512 0
v -768 -496 0
v -752 -496 0
v -320 -528 0
v -336 -528 0
v -336 -512 0
v -320 -512 0
v -496 -528 0
v -512 -528 0
v -512 -512 0
v -496 -512 0
v -512 -528 0
v -528 -528 0
v -528 -512 0
v -512 -512 0
v -720 -528 0
v -736 -528 0
v -736 -512 0
v -720 -512 0
v -512 -544 0
v -528 -544 0
v -528 -528 0
v -512 -528 0
v -528 -544 0
v -544 -544 0
v -544 -528 0
v -528 -528 0
v -544 -544 0
v -560 -544 0
v -560 -528 0
v -544 -528 0
v -720 -544 0
v -736 -544 0
v -736 -528 0
v -720 -528 0
v -256 -576 0
v -272 -576 0
v -272 -560 0
v -256 -560 0
v -128 -592 0
v -144 -592 0
v -144 -576 0
v -128 -576 0
v -912 -592 0
v -928 -592 0
v -928 -576 0
v -912 -576 0
v -464 -624 0
v -480 -624 0
v -480 -608 0
v -464 -608 0
v -896 -640 0
v -912 -640 0
v -912 -624 0
v -896 -624 0
v -560 -672 0
v -576 -672 0
v -576 -656 0
v -560 -656 0
v -1072 -672 0
v -1088 -672 0
v -1088 -656 0
v -1072 -656 0
v -448 -688 0
v -464 -688 0
v -464 -672 0
v -448 -672 0
v -752 -688 0
v -768 -688 0
v -768 -672 0
v -752 -672 0
v -464 -720 0
v -480 -720 0
v -480 -704 0
v -464 -704 0
v -320 -752 0
v -336 -752 0
v -336 -736 0
v -320 -736 0
v -512 -752 0
v -528 -752 0
v -528 -736 0
v -512 -736 0
v -544 -784 0
v -560 -784 0
v -560 -768 0
v -544 -768 0
v -736 -800 0
v -752 -800 0
v -752 -784 0
v -736 -784 0

# Texture cooridinates (Count = 10)
vt 0.9166667 0.1111111
vt 1 0.1111111
vt 1 0.2222222
vt 0.9166667 0.2222222
vt 0.08333334 0
vt 0.1666667 0
vt 0.1666667 0.1111111
vt 0.08333334 0.1111111
vt 0.8333333 0.1111111
vt 0.8333333 0.2222222

# Normal
vn 0 0 -1

# Mesh description
g Oasis_mesh_0008

# Faces
f 1/1/1 2/2/1 3/3/1 4/4/1
f 5/1/1 6/2/1 7/3/1 8/4/1
f 9/1/1 10/2/1 11/3/1 12/4/1
f 13/5/1 14/6/1 15/7/1 16/8/1
f 17/1/1 18/2/1 19/3/1 20/4/1
f 21/5/1 22/6/1 23/7/1 24/8/1
f 25/1/1 26/2/1 27/3/1 28/4/1
f 29/5/1 30/6/1 31/7/1 32/8/1
f 33/9/1 34/1/1 35/4/1 36/10/1
f 37/5/1 38/6/1 39/7/1 40/8/1
f 41/1/1 42/2/1 43/3/1 44/4/1
f 45/5/1 46/6/1 47/7/1 48/8/1
f 49/9/1 50/1/1 51/4/1 52/10/1
f 53/5/1 54/6/1 55/7/1 56/8/1
f 57/9/1 58/1/1 59/4/1 60/10/1
f 61/9/1 62/1/1 63/4/1 64/10/1
f 65/5/1 66/6/1 67/7/1 68/8/1
f 69/9/1 70/1/1 71/4/1 72/10/1
f 73/5/1 74/6/1 75/7/1 76/8/1
f 77/1/1 78/2/1 79/3/1 80/4/1
f 81/5/1 82/6/1 83/7/1 84/8/1
f 85/5/1 86/6/1 87/7/1 88/8/1
f 89/5/1 90/6/1 91/7/1 92/8/1
f 93/1/1 94/2/1 95/3/1 96/4/1
f 97/1/1 98/2/1 99/3/1 100/4/1
f 101/5/1 102/6/1 103/7/1 104/8/1
f 105/5/1 106/6/1 107/7/1 108/8/1
f 109/5/1 110/6/1 111/7/1 112/8/1
f 113/1/1 114/2/1 115/3/1 116/4/1
f 117/1/1 118/2/1 119/3/1 120/4/1
f 121/5/1 122/6/1 123/7/1 124/8/1
f 125/9/1 126/1/1 127/4/1 128/10/1
f 129/9/1 130/1/1 131/4/1 132/10/1
f 133/9/1 134/1/1 135/4/1 136/10/1
f 137/5/1 138/6/1 139/7/1 140/8/1
f 141/1/1 142/2/1 143/3/1 144/4/1
f 145/9/1 146/1/1 147/4/1 148/10/1
f 149/5/1 150/6/1 151/7/1 152/8/1

