# Tiled2Unity generated file. Do not modify by hand.
# Wavefront file for 'Oasis_mesh_0019.obj'

# Vertices (Count = 100)
v -10.56 -0.32 0
v -10.88 -0.32 0
v -10.88 0 0
v -10.56 0 0
v -0.64 -0.64 0
v -0.96 -0.64 0
v -0.96 -0.32 0
v -0.64 -0.32 0
v -0.96 -0.64 0
v -1.28 -0.64 0
v -1.28 -0.32 0
v -0.96 -0.32 0
v -13.76 -0.64 0
v -14.08 -0.64 0
v -14.08 -0.32 0
v -13.76 -0.32 0
v -14.08 -0.64 0
v -14.4 -0.64 0
v -14.4 -0.32 0
v -14.08 -0.32 0
v -20.48 -0.96 0
v -20.8 -0.96 0
v -20.8 -0.64 0
v -20.48 -0.64 0
v -20.8 -0.96 0
v -21.12 -0.96 0
v -21.12 -0.64 0
v -20.8 -0.64 0
v -21.76 -0.96 0
v -22.08 -0.96 0
v -22.08 -0.64 0
v -21.76 -0.64 0
v -6.08 -1.6 0
v -6.4 -1.6 0
v -6.4 -1.28 0
v -6.08 -1.28 0
v -20.48 -2.56 0
v -20.8 -2.56 0
v -20.8 -2.24 0
v -20.48 -2.24 0
v -20.8 -2.56 0
v -21.12 -2.56 0
v -21.12 -2.24 0
v -20.8 -2.24 0
v -21.76 -2.56 0
v -22.08 -2.56 0
v -22.08 -2.24 0
v -21.76 -2.24 0
v -20.48 -4.16 0
v -20.8 -4.16 0
v -20.8 -3.84 0
v -20.48 -3.84 0
v -20.8 -4.16 0
v -21.12 -4.16 0
v -21.12 -3.84 0
v -20.8 -3.84 0
v -21.76 -4.16 0
v -22.08 -4.16 0
v -22.08 -3.84 0
v -21.76 -3.84 0
v -0.32 -4.8 0
v -0.64 -4.8 0
v -0.64 -4.48 0
v -0.32 -4.48 0
v -10.56 -5.12 0
v -10.88 -5.12 0
v -10.88 -4.8 0
v -10.56 -4.8 0
v -10.88 -5.12 0
v -11.2 -5.12 0
v -11.2 -4.8 0
v -10.88 -4.8 0
v -20.48 -5.76 0
v -20.8 -5.76 0
v -20.8 -5.44 0
v -20.48 -5.44 0
v -20.8 -5.76 0
v -21.12 -5.76 0
v -21.12 -5.44 0
v -20.8 -5.44 0
v -21.76 -5.76 0
v -22.08 -5.76 0
v -22.08 -5.44 0
v -21.76 -5.44 0
v -12.16 -7.04 0
v -12.48 -7.04 0
v -12.48 -6.72 0
v -12.16 -6.72 0
v -20.48 -7.36 0
v -20.8 -7.36 0
v -20.8 -7.04 0
v -20.48 -7.04 0
v -20.8 -7.36 0
v -21.12 -7.36 0
v -21.12 -7.04 0
v -20.8 -7.04 0
v -21.76 -7.36 0
v -22.08 -7.36 0
v -22.08 -7.04 0
v -21.76 -7.04 0

# Texture cooridinates (Count = 8)
vt 0.5 0.6666666
vt 1 0.6666666
vt 1 1
vt 0.5 1
vt 0 0.6666666
vt 0 1
vt 0.5 0.3333333
vt 1 0.3333333

# Normal
vn 0 0 -1

# Mesh description
g Oasis_mesh_0019

# Faces
f 1/1/1 2/2/1 3/3/1 4/4/1
f 5/1/1 6/2/1 7/3/1 8/4/1
f 9/1/1 10/2/1 11/3/1 12/4/1
f 13/5/1 14/1/1 15/4/1 16/6/1
f 17/5/1 18/1/1 19/4/1 20/6/1
f 21/1/1 22/2/1 23/3/1 24/4/1
f 25/1/1 26/2/1 27/3/1 28/4/1
f 29/5/1 30/1/1 31/4/1 32/6/1
f 33/5/1 34/1/1 35/4/1 36/6/1
f 37/1/1 38/2/1 39/3/1 40/4/1
f 41/1/1 42/2/1 43/3/1 44/4/1
f 45/5/1 46/1/1 47/4/1 48/6/1
f 49/1/1 50/2/1 51/3/1 52/4/1
f 53/1/1 54/2/1 55/3/1 56/4/1
f 57/5/1 58/1/1 59/4/1 60/6/1
f 61/7/1 62/8/1 63/2/1 64/1/1
f 65/1/1 66/2/1 67/3/1 68/4/1
f 69/1/1 70/2/1 71/3/1 72/4/1
f 73/1/1 74/2/1 75/3/1 76/4/1
f 77/1/1 78/2/1 79/3/1 80/4/1
f 81/5/1 82/1/1 83/4/1 84/6/1
f 85/1/1 86/2/1 87/3/1 88/4/1
f 89/1/1 90/2/1 91/3/1 92/4/1
f 93/1/1 94/2/1 95/3/1 96/4/1
f 97/5/1 98/1/1 99/4/1 100/6/1

