# Tiled2Unity generated file. Do not modify by hand.
# Wavefront file for 'Oasis_mesh_0025.obj'

# Vertices (Count = 168)
v -19.52 -0.32 0
v -19.84 -0.32 0
v -19.84 0 0
v -19.52 0 0
v -19.52 -1.28 0
v -19.84 -1.28 0
v -19.84 -0.96 0
v -19.52 -0.96 0
v -19.52 -1.6 0
v -19.84 -1.6 0
v -19.84 -1.28 0
v -19.52 -1.28 0
v -19.52 -1.92 0
v -19.84 -1.92 0
v -19.84 -1.6 0
v -19.52 -1.6 0
v -19.52 -2.88 0
v -19.84 -2.88 0
v -19.84 -2.56 0
v -19.52 -2.56 0
v -19.52 -3.2 0
v -19.84 -3.2 0
v -19.84 -2.88 0
v -19.52 -2.88 0
v -19.52 -3.52 0
v -19.84 -3.52 0
v -19.84 -3.2 0
v -19.52 -3.2 0
v -19.52 -4.48 0
v -19.84 -4.48 0
v -19.84 -4.16 0
v -19.52 -4.16 0
v -19.52 -4.8 0
v -19.84 -4.8 0
v -19.84 -4.48 0
v -19.52 -4.48 0
v -19.52 -5.12 0
v -19.84 -5.12 0
v -19.84 -4.8 0
v -19.52 -4.8 0
v -19.52 -6.08 0
v -19.84 -6.08 0
v -19.84 -5.76 0
v -19.52 -5.76 0
v -19.52 -6.4 0
v -19.84 -6.4 0
v -19.84 -6.08 0
v -19.52 -6.08 0
v -11.52 -6.72 0
v -11.84 -6.72 0
v -11.84 -6.4 0
v -11.52 -6.4 0
v -11.84 -6.72 0
v -12.16 -6.72 0
v -12.16 -6.4 0
v -11.84 -6.4 0
v -19.52 -6.72 0
v -19.84 -6.72 0
v -19.84 -6.4 0
v -19.52 -6.4 0
v -11.52 -7.04 0
v -11.84 -7.04 0
v -11.84 -6.72 0
v -11.52 -6.72 0
v -11.84 -7.04 0
v -12.16 -7.04 0
v -12.16 -6.72 0
v -11.84 -6.72 0
v -19.52 -7.68 0
v -19.84 -7.68 0
v -19.84 -7.36 0
v -19.52 -7.36 0
v -20.8 -7.68 0
v -21.12 -7.68 0
v -21.12 -7.36 0
v -20.8 -7.36 0
v -21.12 -7.68 0
v -21.44 -7.68 0
v -21.44 -7.36 0
v -21.12 -7.36 0
v -19.52 -8 0
v -19.84 -8 0
v -19.84 -7.68 0
v -19.52 -7.68 0
v -20.8 -8 0
v -21.12 -8 0
v -21.12 -7.68 0
v -20.8 -7.68 0
v -21.12 -8 0
v -21.44 -8 0
v -21.44 -7.68 0
v -21.12 -7.68 0
v -15.68 -8.32 0
v -16 -8.32 0
v -16 -8 0
v -15.68 -8 0
v -19.52 -8.32 0
v -19.84 -8.32 0
v -19.84 -8 0
v -19.52 -8 0
v -20.8 -8.32 0
v -21.12 -8.32 0
v -21.12 -8 0
v -20.8 -8 0
v -21.12 -8.32 0
v -21.44 -8.32 0
v -21.44 -8 0
v -21.12 -8 0
v -10.88 -11.52 0
v -11.2 -11.52 0
v -11.2 -11.2 0
v -10.88 -11.2 0
v -13.12 -14.08 0
v -13.44 -14.08 0
v -13.44 -13.76 0
v -13.12 -13.76 0
v -13.44 -14.08 0
v -13.76 -14.08 0
v -13.76 -13.76 0
v -13.44 -13.76 0
v -15.68 -14.08 0
v -16 -14.08 0
v -16 -13.76 0
v -15.68 -13.76 0
v -16 -14.08 0
v -16.32 -14.08 0
v -16.32 -13.76 0
v -16 -13.76 0
v -13.12 -14.4 0
v -13.44 -14.4 0
v -13.44 -14.08 0
v -13.12 -14.08 0
v -13.44 -14.4 0
v -13.76 -14.4 0
v -13.76 -14.08 0
v -13.44 -14.08 0
v -15.68 -14.4 0
v -16 -14.4 0
v -16 -14.08 0
v -15.68 -14.08 0
v -16 -14.4 0
v -16.32 -14.4 0
v -16.32 -14.08 0
v -16 -14.08 0
v -20.48 -14.4 0
v -20.8 -14.4 0
v -20.8 -14.08 0
v -20.48 -14.08 0
v -20.8 -14.4 0
v -21.12 -14.4 0
v -21.12 -14.08 0
v -20.8 -14.08 0
v -20.48 -14.72 0
v -20.8 -14.72 0
v -20.8 -14.4 0
v -20.48 -14.4 0
v -20.8 -14.72 0
v -21.12 -14.72 0
v -21.12 -14.4 0
v -20.8 -14.4 0
v -20.8 -16 0
v -21.12 -16 0
v -21.12 -15.68 0
v -20.8 -15.68 0
v -21.12 -16 0
v -21.44 -16 0
v -21.44 -15.68 0
v -21.12 -15.68 0

# Texture cooridinates (Count = 43)
vt 0.59375 0.4375
vt 0.625 0.4375
vt 0.625 0.46875
vt 0.59375 0.46875
vt 0.4375 0.59375
vt 0.46875 0.59375
vt 0.46875 0.625
vt 0.4375 0.625
vt 0.4375 0.5625
vt 0.46875 0.5625
vt 0.4375 0.53125
vt 0.46875 0.53125
vt 0.625 0.5
vt 0.65625 0.5
vt 0.65625 0.53125
vt 0.625 0.53125
vt 0.65625 0.46875
vt 0.65625 0.4375
vt 0.59375 0.5
vt 0.59375 0.53125
vt 0.34375 0.53125
vt 0.375 0.53125
vt 0.375 0.5625
vt 0.34375 0.5625
vt 0.40625 0.53125
vt 0.40625 0.5625
vt 0.34375 0.5
vt 0.375 0.5
vt 0.40625 0.5
vt 0.65625 0.28125
vt 0.6875 0.28125
vt 0.6875 0.3125
vt 0.65625 0.3125
vt 0.75 0.28125
vt 0.78125 0.28125
vt 0.78125 0.3125
vt 0.75 0.3125
vt 0.28125 0.53125
vt 0.3125 0.53125
vt 0.3125 0.5625
vt 0.28125 0.5625
vt 0.8125 0.28125
vt 0.8125 0.3125

# Normal
vn 0 0 -1

# Mesh description
g Oasis_mesh_0025

# Faces
f 1/1/1 2/2/1 3/3/1 4/4/1
f 5/5/1 6/6/1 7/7/1 8/8/1
f 9/9/1 10/10/1 11/6/1 12/5/1
f 13/11/1 14/12/1 15/10/1 16/9/1
f 17/13/1 18/14/1 19/15/1 20/16/1
f 21/3/1 22/17/1 23/14/1 24/13/1
f 25/2/1 26/18/1 27/17/1 28/3/1
f 29/19/1 30/13/1 31/16/1 32/20/1
f 33/4/1 34/3/1 35/13/1 36/19/1
f 37/1/1 38/2/1 39/3/1 40/4/1
f 41/19/1 42/13/1 43/16/1 44/20/1
f 45/4/1 46/3/1 47/13/1 48/19/1
f 49/21/1 50/22/1 51/23/1 52/24/1
f 53/22/1 54/25/1 55/26/1 56/23/1
f 57/1/1 58/2/1 59/3/1 60/4/1
f 61/27/1 62/28/1 63/22/1 64/21/1
f 65/28/1 66/29/1 67/25/1 68/22/1
f 69/19/1 70/13/1 71/16/1 72/20/1
f 73/30/1 74/31/1 75/32/1 76/33/1
f 77/19/1 78/13/1 79/16/1 80/20/1
f 81/4/1 82/3/1 83/13/1 84/19/1
f 85/34/1 86/35/1 87/36/1 88/37/1
f 89/4/1 90/3/1 91/13/1 92/19/1
f 93/38/1 94/39/1 95/40/1 96/41/1
f 97/1/1 98/2/1 99/3/1 100/4/1
f 101/35/1 102/42/1 103/43/1 104/36/1
f 105/1/1 106/2/1 107/3/1 108/4/1
f 109/38/1 110/39/1 111/40/1 112/41/1
f 113/21/1 114/22/1 115/23/1 116/24/1
f 117/22/1 118/25/1 119/26/1 120/23/1
f 121/21/1 122/22/1 123/23/1 124/24/1
f 125/22/1 126/25/1 127/26/1 128/23/1
f 129/27/1 130/28/1 131/22/1 132/21/1
f 133/28/1 134/29/1 135/25/1 136/22/1
f 137/27/1 138/28/1 139/22/1 140/21/1
f 141/28/1 142/29/1 143/25/1 144/22/1
f 145/21/1 146/22/1 147/23/1 148/24/1
f 149/22/1 150/25/1 151/26/1 152/23/1
f 153/27/1 154/28/1 155/22/1 156/21/1
f 157/28/1 158/29/1 159/25/1 160/22/1
f 161/21/1 162/22/1 163/23/1 164/24/1
f 165/22/1 166/25/1 167/26/1 168/23/1

