# Tiled2Unity generated file. Do not modify by hand.
# Wavefront file for 'Oasis_mesh_0008.obj'

# Vertices (Count = 152)
v -9.28 -5.44 0
v -9.599999 -5.44 0
v -9.599999 -5.12 0
v -9.28 -5.12 0
v -12.8 -5.44 0
v -13.12 -5.44 0
v -13.12 -5.12 0
v -12.8 -5.12 0
v -14.72 -5.44 0
v -15.04 -5.44 0
v -15.04 -5.12 0
v -14.72 -5.12 0
v -8.639999 -5.76 0
v -8.96 -5.76 0
v -8.96 -5.44 0
v -8.639999 -5.44 0
v -8.96 -5.76 0
v -9.28 -5.76 0
v -9.28 -5.44 0
v -8.96 -5.44 0
v -12.8 -6.08 0
v -13.12 -6.08 0
v -13.12 -5.76 0
v -12.8 -5.76 0
v -8 -6.4 0
v -8.32 -6.4 0
v -8.32 -6.08 0
v -8 -6.08 0
v -10.56 -6.72 0
v -10.88 -6.72 0
v -10.88 -6.4 0
v -10.56 -6.4 0
v -14.72 -7.04 0
v -15.04 -7.04 0
v -15.04 -6.72 0
v -14.72 -6.72 0
v -16.64 -7.04 0
v -16.96 -7.04 0
v -16.96 -6.72 0
v -16.64 -6.72 0
v -14.72 -7.36 0
v -15.04 -7.36 0
v -15.04 -7.04 0
v -14.72 -7.04 0
v -17.28 -9.599999 0
v -17.6 -9.599999 0
v -17.6 -9.28 0
v -17.28 -9.28 0
v -8 -9.92 0
v -8.32 -9.92 0
v -8.32 -9.599999 0
v -8 -9.599999 0
v -1.6 -10.24 0
v -1.92 -10.24 0
v -1.92 -9.92 0
v -1.6 -9.92 0
v -9.28 -10.24 0
v -9.599999 -10.24 0
v -9.599999 -9.92 0
v -9.28 -9.92 0
v -15.04 -10.24 0
v -15.36 -10.24 0
v -15.36 -9.92 0
v -15.04 -9.92 0
v -6.4 -10.56 0
v -6.72 -10.56 0
v -6.72 -10.24 0
v -6.4 -10.24 0
v -9.92 -10.56 0
v -10.24 -10.56 0
v -10.24 -10.24 0
v -9.92 -10.24 0
v -10.24 -10.56 0
v -10.56 -10.56 0
v -10.56 -10.24 0
v -10.24 -10.24 0
v -14.4 -10.56 0
v -14.72 -10.56 0
v -14.72 -10.24 0
v -14.4 -10.24 0
v -10.24 -10.88 0
v -10.56 -10.88 0
v -10.56 -10.56 0
v -10.24 -10.56 0
v -10.56 -10.88 0
v -10.88 -10.88 0
v -10.88 -10.56 0
v -10.56 -10.56 0
v -10.88 -10.88 0
v -11.2 -10.88 0
v -11.2 -10.56 0
v -10.88 -10.56 0
v -14.4 -10.88 0
v -14.72 -10.88 0
v -14.72 -10.56 0
v -14.4 -10.56 0
v -5.12 -11.52 0
v -5.44 -11.52 0
v -5.44 -11.2 0
v -5.12 -11.2 0
v -2.56 -11.84 0
v -2.88 -11.84 0
v -2.88 -11.52 0
v -2.56 -11.52 0
v -18.24 -11.84 0
v -18.56 -11.84 0
v -18.56 -11.52 0
v -18.24 -11.52 0
v -9.28 -12.48 0
v -9.599999 -12.48 0
v -9.599999 -12.16 0
v -9.28 -12.16 0
v -17.92 -12.8 0
v -18.24 -12.8 0
v -18.24 -12.48 0
v -17.92 -12.48 0
v -11.2 -13.44 0
v -11.52 -13.44 0
v -11.52 -13.12 0
v -11.2 -13.12 0
v -21.44 -13.44 0
v -21.76 -13.44 0
v -21.76 -13.12 0
v -21.44 -13.12 0
v -8.96 -13.76 0
v -9.28 -13.76 0
v -9.28 -13.44 0
v -8.96 -13.44 0
v -15.04 -13.76 0
v -15.36 -13.76 0
v -15.36 -13.44 0
v -15.04 -13.44 0
v -9.28 -14.4 0
v -9.599999 -14.4 0
v -9.599999 -14.08 0
v -9.28 -14.08 0
v -6.4 -15.04 0
v -6.72 -15.04 0
v -6.72 -14.72 0
v -6.4 -14.72 0
v -10.24 -15.04 0
v -10.56 -15.04 0
v -10.56 -14.72 0
v -10.24 -14.72 0
v -10.88 -15.68 0
v -11.2 -15.68 0
v -11.2 -15.36 0
v -10.88 -15.36 0
v -14.72 -16 0
v -15.04 -16 0
v -15.04 -15.68 0
v -14.72 -15.68 0

# Texture cooridinates (Count = 10)
vt 0.9166667 0.1111111
vt 1 0.1111111
vt 1 0.2222222
vt 0.9166667 0.2222222
vt 0.08333334 0
vt 0.1666667 0
vt 0.1666667 0.1111111
vt 0.08333334 0.1111111
vt 0.8333333 0.1111111
vt 0.8333333 0.2222222

# Normal
vn 0 0 -1

# Mesh description
g Oasis_mesh_0008

# Faces
f 1/1/1 2/2/1 3/3/1 4/4/1
f 5/1/1 6/2/1 7/3/1 8/4/1
f 9/1/1 10/2/1 11/3/1 12/4/1
f 13/5/1 14/6/1 15/7/1 16/8/1
f 17/1/1 18/2/1 19/3/1 20/4/1
f 21/5/1 22/6/1 23/7/1 24/8/1
f 25/1/1 26/2/1 27/3/1 28/4/1
f 29/5/1 30/6/1 31/7/1 32/8/1
f 33/9/1 34/1/1 35/4/1 36/10/1
f 37/5/1 38/6/1 39/7/1 40/8/1
f 41/1/1 42/2/1 43/3/1 44/4/1
f 45/5/1 46/6/1 47/7/1 48/8/1
f 49/9/1 50/1/1 51/4/1 52/10/1
f 53/5/1 54/6/1 55/7/1 56/8/1
f 57/9/1 58/1/1 59/4/1 60/10/1
f 61/9/1 62/1/1 63/4/1 64/10/1
f 65/5/1 66/6/1 67/7/1 68/8/1
f 69/9/1 70/1/1 71/4/1 72/10/1
f 73/5/1 74/6/1 75/7/1 76/8/1
f 77/1/1 78/2/1 79/3/1 80/4/1
f 81/5/1 82/6/1 83/7/1 84/8/1
f 85/5/1 86/6/1 87/7/1 88/8/1
f 89/5/1 90/6/1 91/7/1 92/8/1
f 93/1/1 94/2/1 95/3/1 96/4/1
f 97/1/1 98/2/1 99/3/1 100/4/1
f 101/5/1 102/6/1 103/7/1 104/8/1
f 105/5/1 106/6/1 107/7/1 108/8/1
f 109/5/1 110/6/1 111/7/1 112/8/1
f 113/1/1 114/2/1 115/3/1 116/4/1
f 117/1/1 118/2/1 119/3/1 120/4/1
f 121/5/1 122/6/1 123/7/1 124/8/1
f 125/9/1 126/1/1 127/4/1 128/10/1
f 129/9/1 130/1/1 131/4/1 132/10/1
f 133/9/1 134/1/1 135/4/1 136/10/1
f 137/5/1 138/6/1 139/7/1 140/8/1
f 141/1/1 142/2/1 143/3/1 144/4/1
f 145/9/1 146/1/1 147/4/1 148/10/1
f 149/5/1 150/6/1 151/7/1 152/8/1

