# Tiled2Unity generated file. Do not modify by hand.
# Wavefront file for 'CastleHalls_mesh_0017.obj'

# Vertices (Count = 16)
v -4.16 -4.8 0
v -4.48 -4.8 0
v -4.48 -4.48 0
v -4.16 -4.48 0
v -4.48 -4.8 0
v -4.8 -4.8 0
v -4.8 -4.48 0
v -4.48 -4.48 0
v -20.8 -4.8 0
v -21.12 -4.8 0
v -21.12 -4.48 0
v -20.8 -4.48 0
v -21.12 -4.8 0
v -21.44 -4.8 0
v -21.44 -4.48 0
v -21.12 -4.48 0

# Texture cooridinates (Count = 6)
vt 0 0.75
vt 0.2 0.75
vt 0.2 1
vt 0 1
vt 0.4 0.75
vt 0.4 1

# Normal
vn 0 0 -1

# Mesh description
g CastleHalls_mesh_0017

# Faces
f 1/1/1 2/2/1 3/3/1 4/4/1
f 5/2/1 6/5/1 7/6/1 8/3/1
f 9/1/1 10/2/1 11/3/1 12/4/1
f 13/2/1 14/5/1 15/6/1 16/3/1

