# Tiled2Unity generated file. Do not modify by hand.
# Wavefront file for 'CastleHalls_mesh_0011.obj'

# Vertices (Count = 44)
v 0 -0.32 0
v -0.32 -0.32 0
v -0.32 0 0
v 0 0 0
v -22.08 -1.28 0
v -22.4 -1.28 0
v -22.4 -0.96 0
v -22.08 -0.96 0
v 0 -1.6 0
v -0.32 -1.6 0
v -0.32 -1.28 0
v 0 -1.28 0
v -2.56 -4.8 0
v -2.88 -4.8 0
v -2.88 -4.48 0
v -2.56 -4.48 0
v -6.08 -4.8 0
v -6.4 -4.8 0
v -6.4 -4.48 0
v -6.08 -4.48 0
v -9.28 -4.8 0
v -9.599999 -4.8 0
v -9.599999 -4.48 0
v -9.28 -4.48 0
v -12.48 -4.8 0
v -12.8 -4.8 0
v -12.8 -4.48 0
v -12.48 -4.48 0
v -15.68 -4.8 0
v -16 -4.8 0
v -16 -4.48 0
v -15.68 -4.48 0
v -18.88 -4.8 0
v -19.2 -4.8 0
v -19.2 -4.48 0
v -18.88 -4.48 0
v -21.12 -7.36 0
v -21.44 -7.36 0
v -21.44 -7.04 0
v -21.12 -7.04 0
v -22.08 -7.68 0
v -22.4 -7.68 0
v -22.4 -7.36 0
v -22.08 -7.36 0

# Texture cooridinates (Count = 20)
vt 0.9 0.5
vt 1 0.5
vt 1 0.6
vt 0.9 0.6
vt 0.9 0.4
vt 1 0.4
vt 0.7 0.7
vt 0.8 0.7
vt 0.8 0.8
vt 0.7 0.8
vt 0.3 0.8
vt 0.4 0.8
vt 0.4 0.9
vt 0.3 0.9
vt 0.4 1
vt 0.3 1
vt 0.1 0
vt 0.2 0
vt 0.2 0.1
vt 0.1 0.1

# Normal
vn 0 0 -1

# Mesh description
g CastleHalls_mesh_0011

# Faces
f 1/1/1 2/2/1 3/3/1 4/4/1
f 5/5/1 6/6/1 7/2/1 8/1/1
f 9/7/1 10/8/1 11/9/1 12/10/1
f 13/11/1 14/12/1 15/13/1 16/14/1
f 17/14/1 18/13/1 19/15/1 20/16/1
f 21/14/1 22/13/1 23/15/1 24/16/1
f 25/11/1 26/12/1 27/13/1 28/14/1
f 29/11/1 30/12/1 31/13/1 32/14/1
f 33/14/1 34/13/1 35/15/1 36/16/1
f 37/7/1 38/8/1 39/9/1 40/10/1
f 41/17/1 42/18/1 43/19/1 44/20/1

