# Tiled2Unity generated file. Do not modify by hand.
# Wavefront file for 'test2_mesh_0003.obj'

# Vertices (Count = 72)
v -32 -16 0
v -48 -16 0
v -48 0 0
v -32 0 0
v -288 -16 0
v -304 -16 0
v -304 0 0
v -288 0 0
v -304 -16 0
v -320 -16 0
v -320 0 0
v -304 0 0
v -32 -32 0
v -48 -32 0
v -48 -16 0
v -32 -16 0
v -288 -32 0
v -304 -32 0
v -304 -16 0
v -288 -16 0
v -304 -32 0
v -320 -32 0
v -320 -16 0
v -304 -16 0
v -64 -96 0
v -80 -96 0
v -80 -80 0
v -64 -80 0
v -64 -112 0
v -80 -112 0
v -80 -96 0
v -64 -96 0
v -16 -144 0
v -32 -144 0
v -32 -128 0
v -16 -128 0
v -32 -144 0
v -48 -144 0
v -48 -128 0
v -32 -128 0
v -288 -144 0
v -304 -144 0
v -304 -128 0
v -288 -128 0
v -16 -160 0
v -32 -160 0
v -32 -144 0
v -16 -144 0
v -32 -160 0
v -48 -160 0
v -48 -144 0
v -32 -144 0
v -288 -160 0
v -304 -160 0
v -304 -144 0
v -288 -144 0
v -288 -192 0
v -304 -192 0
v -304 -176 0
v -288 -176 0
v -304 -192 0
v -320 -192 0
v -320 -176 0
v -304 -176 0
v -288 -208 0
v -304 -208 0
v -304 -192 0
v -288 -192 0
v -304 -208 0
v -320 -208 0
v -320 -192 0
v -304 -192 0

# Texture cooridinates (Count = 15)
vt 0 0.5
vt 0.25 0.5
vt 0.25 1
vt 0 1
vt 0.5 0.5
vt 0.75 0.5
vt 0.75 1
vt 0.5 1
vt 1 0.5
vt 1 1
vt 0 0
vt 0.25 0
vt 0.5 0
vt 0.75 0
vt 1 0

# Normal
vn 0 0 -1

# Mesh description
g test2_mesh_0003

# Faces
f 1/1/1 2/2/1 3/3/1 4/4/1
f 5/5/1 6/6/1 7/7/1 8/8/1
f 9/6/1 10/9/1 11/10/1 12/7/1
f 13/11/1 14/12/1 15/2/1 16/1/1
f 17/13/1 18/14/1 19/6/1 20/5/1
f 21/14/1 22/15/1 23/9/1 24/6/1
f 25/1/1 26/2/1 27/3/1 28/4/1
f 29/11/1 30/12/1 31/2/1 32/1/1
f 33/5/1 34/6/1 35/7/1 36/8/1
f 37/6/1 38/9/1 39/10/1 40/7/1
f 41/1/1 42/2/1 43/3/1 44/4/1
f 45/13/1 46/14/1 47/6/1 48/5/1
f 49/14/1 50/15/1 51/9/1 52/6/1
f 53/11/1 54/12/1 55/2/1 56/1/1
f 57/5/1 58/6/1 59/7/1 60/8/1
f 61/6/1 62/9/1 63/10/1 64/7/1
f 65/13/1 66/14/1 67/6/1 68/5/1
f 69/14/1 70/15/1 71/9/1 72/6/1

