# Tiled2Unity generated file. Do not modify by hand.
# Wavefront file for 'test2_mesh_0005.obj'

# Vertices (Count = 52)
v -176 -16 0
v -192 -16 0
v -192 0 0
v -176 0 0
v -176 -48 0
v -192 -48 0
v -192 -32 0
v -176 -32 0
v -288 -80 0
v -304 -80 0
v -304 -64 0
v -288 -64 0
v -176 -96 0
v -192 -96 0
v -192 -80 0
v -176 -80 0
v -48 -144 0
v -64 -144 0
v -64 -128 0
v -48 -128 0
v -96 -144 0
v -112 -144 0
v -112 -128 0
v -96 -128 0
v -128 -160 0
v -144 -160 0
v -144 -144 0
v -128 -144 0
v -128 -192 0
v -144 -192 0
v -144 -176 0
v -128 -176 0
v -128 -208 0
v -144 -208 0
v -144 -192 0
v -128 -192 0
v -176 -224 0
v -192 -224 0
v -192 -208 0
v -176 -208 0
v -272 -224 0
v -288 -224 0
v -288 -208 0
v -272 -208 0
v -288 -224 0
v -304 -224 0
v -304 -208 0
v -288 -208 0
v -112 -240 0
v -128 -240 0
v -128 -224 0
v -112 -224 0

# Texture cooridinates (Count = 6)
vt 0.5 0
vt 1 0
vt 1 1
vt 0.5 1
vt 0 0
vt 0 1

# Normal
vn 0 0 -1

# Mesh description
g test2_mesh_0005

# Faces
f 1/1/1 2/2/1 3/3/1 4/4/1
f 5/1/1 6/2/1 7/3/1 8/4/1
f 9/1/1 10/2/1 11/3/1 12/4/1
f 13/1/1 14/2/1 15/3/1 16/4/1
f 17/5/1 18/1/1 19/4/1 20/6/1
f 21/1/1 22/2/1 23/3/1 24/4/1
f 25/5/1 26/1/1 27/4/1 28/6/1
f 29/1/1 30/2/1 31/3/1 32/4/1
f 33/5/1 34/1/1 35/4/1 36/6/1
f 37/5/1 38/1/1 39/4/1 40/6/1
f 41/5/1 42/1/1 43/4/1 44/6/1
f 45/5/1 46/1/1 47/4/1 48/6/1
f 49/1/1 50/2/1 51/3/1 52/4/1

